<svg width="1379" height="132" viewBox="0 0 1379 132" fill="none" xmlns="http://www.w3.org/2000/svg">
<rect x="1" y="1" width="416.887" height="129.5" rx="16" stroke="#DCDCDC" stroke-width="1.5"/>
<path d="M172.818 86.8688C172.818 66.2588 156.108 49.5488 135.498 49.5488C114.888 49.5488 98.1885 66.2588 98.1885 86.8688H172.818Z" fill="#FF441F"/>
<path d="M140.782 46.0171C141.47 43.1039 139.666 40.1847 136.753 39.4968C133.84 38.8089 130.921 40.6129 130.233 43.526C129.545 46.4392 131.349 49.3584 134.262 50.0463C137.175 50.7342 140.094 48.9302 140.782 46.0171Z" fill="#FF441F"/>
<path d="M104.567 79.5386C104.757 76.2786 105.797 73.0886 107.237 70.1186C108.697 67.1486 110.667 64.4186 113.047 62.0786C115.417 59.7286 118.217 57.8286 121.227 56.4386C124.247 55.0886 127.467 54.2186 130.717 54.0186C127.707 55.2586 124.837 56.5886 122.167 58.2086C119.507 59.8386 117.037 61.7286 114.837 63.8886C112.637 66.0486 110.677 68.4686 108.977 71.0986C108.127 72.4086 107.317 73.7586 106.597 75.1786C105.847 76.5786 105.187 78.0286 104.567 79.5386Z" fill="white"/>
<path d="M181.558 64.6484C181.938 64.6484 183.118 64.9084 185.088 65.4384C185.538 61.5384 186.818 57.2984 188.908 52.7284C189.648 51.0584 190.528 50.2284 191.548 50.2284C191.738 50.2284 191.928 50.4284 192.098 50.8384C192.278 51.2384 192.368 51.7384 192.368 52.3384C192.368 53.0484 191.988 55.0184 191.248 58.2284C190.498 61.4384 190.008 64.2384 189.768 66.6184C191.338 66.9784 192.728 67.1584 193.928 67.1584C195.128 67.1584 196.228 66.8384 197.228 66.2084C198.228 65.5784 199.088 64.7584 199.798 63.7584C201.278 61.6384 202.008 59.0984 202.008 56.1184C201.988 50.6184 199.798 47.8684 195.438 47.8684C193.888 47.8884 191.158 48.5784 187.228 49.9384C186.468 50.1984 185.798 50.3284 185.228 50.3284C184.658 50.3284 184.368 50.1584 184.368 49.8284C184.368 49.3784 184.698 48.8384 185.368 48.2184C186.038 47.5984 186.888 47.0084 187.938 46.4284C190.508 45.0484 193.008 44.3584 195.438 44.3584C198.768 44.3584 201.508 45.2484 203.648 47.0384C206.168 49.1584 207.418 52.3684 207.398 56.6784C207.398 58.5084 207.108 60.3184 206.538 62.1084C205.968 63.8984 205.098 65.4784 203.928 66.8784C202.758 68.2684 201.288 69.3984 199.498 70.2484C197.708 71.1084 195.608 71.5384 193.178 71.5384C192.198 71.5384 190.968 71.3284 189.468 70.8984C189.298 71.3484 188.888 71.5784 188.218 71.5784C186.978 71.5784 186.138 71.3684 185.698 70.9584C185.258 70.5484 184.998 69.8584 184.928 68.9084C183.788 68.2684 182.838 67.5984 182.088 66.9084C181.338 66.2184 180.968 65.6084 180.968 65.0884C180.988 64.7884 181.178 64.6484 181.558 64.6484Z" fill="#FF441F"/>
<path d="M217.328 67.3584C219.188 67.3584 220.978 66.6184 222.718 65.1484C223.358 64.5984 223.888 64.0984 224.288 63.6284C224.688 63.1684 224.998 62.9284 225.218 62.9284C225.548 62.9284 225.718 63.2584 225.718 63.9284C225.718 64.5984 225.538 65.3384 225.178 66.1584C224.818 66.9784 224.228 67.7784 223.388 68.5684C221.338 70.4984 218.538 71.4584 214.958 71.4584C212.128 71.4584 210.198 70.4384 209.178 68.3884C208.818 67.6784 208.638 66.6484 208.638 65.3184C208.638 63.9884 208.898 62.5984 209.428 61.1584C209.948 59.7184 210.648 58.4784 211.518 57.4284C212.388 56.3784 213.388 55.5684 214.538 54.9784C215.678 54.3984 216.898 54.1084 218.198 54.1084C219.498 54.1084 220.498 54.4284 221.198 55.0684C221.898 55.7084 222.248 56.5484 222.248 57.5684C222.248 58.5884 221.988 59.4284 221.478 60.0884C220.968 60.7484 220.308 61.2884 219.498 61.7284C218.688 62.1684 217.788 62.5584 216.798 62.9084C215.808 63.2584 214.838 63.6384 213.888 64.0684V64.9584C213.908 65.8184 214.268 66.4184 214.958 66.7784C215.668 67.1484 216.448 67.3384 217.328 67.3584ZM216.718 57.2884C215.478 57.2884 214.628 58.7284 214.148 61.6084C214.648 61.2784 215.118 60.9784 215.558 60.7184C215.998 60.4584 216.388 60.2084 216.718 59.9684C217.428 59.4484 217.798 58.8484 217.828 58.1784C217.828 57.5884 217.458 57.2884 216.718 57.2884Z" fill="#FF441F"/>
<path d="M231.898 71.3587C228.498 71.3787 226.178 70.1087 224.938 67.5387C224.508 66.6387 224.298 65.4987 224.298 64.1287C224.298 62.7587 224.418 61.2987 224.658 59.7587C225.138 56.6687 226.048 53.8087 227.408 51.1887C228.098 49.8587 228.868 48.7187 229.728 47.7587C231.608 45.6687 233.698 44.6287 236.008 44.6487C237.028 44.6487 237.838 44.9287 238.418 45.4887C238.998 46.0487 239.288 46.8487 239.288 47.8987C239.288 48.9487 238.978 49.9987 238.358 51.0587C237.738 52.1187 236.948 53.2087 235.988 54.3387C235.028 55.4687 233.958 56.6587 232.798 57.8887C231.628 59.1287 230.488 60.4687 229.368 61.9187V63.3487C229.368 64.6787 229.658 65.6587 230.228 66.2787C230.798 66.8987 231.468 67.2087 232.228 67.2087C234.278 67.2087 236.088 66.1987 237.658 64.1787C238.298 63.3487 238.788 62.9287 239.118 62.9287C239.448 62.9287 239.618 63.3387 239.618 64.1387C239.618 64.9487 239.398 65.7787 238.958 66.6187C238.518 67.4587 237.938 68.2387 237.228 68.9387C236.518 69.6387 235.688 70.2187 234.768 70.6687C233.848 71.1187 232.868 71.3587 231.898 71.3587ZM233.818 52.1887C234.318 51.5687 234.708 51.0087 234.998 50.5087C235.288 50.0087 235.428 49.4887 235.428 48.9587C235.428 48.4187 235.238 48.1587 234.858 48.1587C234.028 48.1587 233.098 49.0187 232.088 50.7287C231.078 52.4387 230.318 54.6887 229.818 57.4787C230.628 56.2387 231.368 55.2087 232.048 54.3687C232.728 53.5287 233.318 52.8087 233.818 52.1887Z" fill="#FF441F"/>
<path d="M241.778 71.3585C239.398 71.3585 238.208 69.1285 238.208 64.6785C238.208 62.2485 238.508 60.0485 239.098 58.0785C240.028 55.0285 241.078 53.5085 242.238 53.5085C242.928 53.5085 243.478 53.9685 243.878 54.8985C244.208 55.6085 244.368 56.3185 244.338 57.0085C244.338 57.9585 244.048 59.6385 243.478 62.0385C242.928 64.1285 242.658 65.4285 242.658 65.9285C242.658 66.4285 242.778 66.7685 243.038 66.9685C243.288 67.1585 243.588 67.2585 243.928 67.2585C244.268 67.2585 244.708 67.0285 245.228 66.5785C245.748 66.1285 246.278 65.6285 246.798 65.0985C247.318 64.5585 247.808 64.0685 248.248 63.6185C248.688 63.1685 248.988 62.9385 249.158 62.9385C249.488 62.9385 249.658 63.3485 249.658 64.1485C249.658 65.8185 248.818 67.4385 247.138 69.0185C245.478 70.5985 243.688 71.3785 241.778 71.3585ZM243.248 50.6185C242.608 49.6685 242.278 48.6385 242.278 47.5485C242.278 46.4585 242.448 45.5485 242.798 44.8185C243.138 44.0885 243.468 43.5585 243.778 43.2085C244.088 42.8685 244.448 42.6885 244.848 42.6885C245.518 42.6885 246.118 43.1785 246.668 44.1685C247.218 45.1585 247.488 45.9785 247.488 46.6485C247.488 47.8885 247.058 48.8585 246.188 49.5585C245.318 50.2685 244.338 50.6185 243.248 50.6185Z" fill="#FF441F"/>
<path d="M262.058 62.8282C262.488 62.8282 262.698 63.1882 262.698 63.9182C262.698 64.6482 262.518 65.4182 262.148 66.2582C261.778 67.0882 261.218 67.8982 260.468 68.6682C259.718 69.4382 258.758 70.0982 257.598 70.6482C256.428 71.1982 255.058 71.4682 253.478 71.4682C251.898 71.4682 250.508 70.9982 249.318 70.0582C248.128 69.1182 247.528 67.7582 247.528 65.9882C247.528 64.2182 247.808 62.6082 248.368 61.1682C248.928 59.7282 249.668 58.4882 250.578 57.4382C251.498 56.3882 252.538 55.5782 253.698 54.9882C254.868 54.4082 255.968 54.1182 257.018 54.1182C258.848 54.1182 259.768 54.8482 259.768 56.2982C259.768 57.1282 259.598 57.7982 259.248 58.2982C258.898 58.7982 258.548 59.0482 258.198 59.0482C257.718 59.0482 257.308 58.8782 256.948 58.5482C256.588 58.2182 256.198 58.0382 255.768 58.0282C255.338 58.0182 254.928 58.2282 254.538 58.6482C254.148 59.0782 253.818 59.6282 253.558 60.2882C253.038 61.6182 252.768 63.1782 252.768 64.9682C252.788 65.8282 253.188 66.4682 253.948 66.8982C254.468 67.1882 255.088 67.3282 255.808 67.3482C256.518 67.3582 257.208 67.1282 257.858 66.6482C258.508 66.1682 259.108 65.6582 259.658 65.0982C260.208 64.5382 260.688 64.0182 261.108 63.5482C261.528 63.0682 261.848 62.8282 262.058 62.8282Z" fill="#FF441F"/>
<path d="M265.198 71.3585C262.818 71.3585 261.628 69.1285 261.628 64.6785C261.628 62.2485 261.928 60.0485 262.518 58.0785C263.448 55.0285 264.498 53.5085 265.658 53.5085C266.348 53.5085 266.898 53.9685 267.298 54.8985C267.628 55.6085 267.788 56.3185 267.758 57.0085C267.758 57.9585 267.468 59.6385 266.898 62.0385C266.348 64.1285 266.078 65.4285 266.078 65.9285C266.078 66.4285 266.198 66.7685 266.458 66.9685C266.708 67.1585 267.008 67.2585 267.348 67.2585C267.688 67.2585 268.128 67.0285 268.648 66.5785C269.168 66.1285 269.698 65.6285 270.218 65.0985C270.738 64.5585 271.228 64.0685 271.668 63.6185C272.108 63.1685 272.408 62.9385 272.578 62.9385C272.908 62.9385 273.078 63.3485 273.078 64.1485C273.078 65.8185 272.238 67.4385 270.558 69.0185C268.898 70.5985 267.108 71.3785 265.198 71.3585ZM266.668 50.6185C266.028 49.6685 265.708 48.6485 265.708 47.5485C265.708 46.4585 265.878 45.5485 266.228 44.8185C266.568 44.0885 266.898 43.5585 267.208 43.2085C267.518 42.8685 267.878 42.6885 268.278 42.6885C268.948 42.6885 269.548 43.1785 270.098 44.1685C270.648 45.1585 270.918 45.9785 270.918 46.6485C270.918 47.8885 270.488 48.8585 269.618 49.5585C268.738 50.2685 267.758 50.6185 266.668 50.6185Z" fill="#FF441F"/>
<path d="M285.729 68.2184C283.849 70.4284 281.589 71.5384 278.959 71.5384C276.329 71.5384 274.359 70.8684 273.049 69.5184C271.739 68.1784 271.099 66.4984 271.119 64.4984C271.099 61.6684 271.989 59.2284 273.799 57.1784C275.609 55.1284 277.979 54.1084 280.899 54.1084C282.229 54.1084 283.299 54.2784 284.109 54.6084C285.509 55.1784 286.219 55.7184 286.219 56.2184C286.219 56.5984 285.239 56.7984 283.269 56.8084C281.299 56.8184 279.659 57.4984 278.339 58.8484C277.019 60.1884 276.359 61.8884 276.359 63.9384C276.359 65.0084 276.669 65.9084 277.309 66.6384C277.939 67.3684 278.829 67.7284 279.989 67.7284C281.139 67.7284 282.099 67.4884 282.859 67.0184C281.169 65.8784 280.329 64.2184 280.329 62.0584C280.309 60.9184 280.719 59.8784 281.559 58.9384C282.399 57.9984 283.489 57.5184 284.809 57.5084C286.129 57.4984 287.079 57.8584 287.649 58.5984C288.219 59.3384 288.509 60.2784 288.509 61.4384C288.509 62.5984 288.239 63.8084 287.689 65.0984H287.899C288.949 65.0784 289.849 64.7084 290.609 63.9884C290.899 63.6984 291.139 63.4484 291.339 63.2384C291.539 63.0284 291.749 62.9184 291.959 62.9184C292.289 62.9184 292.459 63.3084 292.459 64.0984C292.459 65.5484 292.029 66.6384 291.169 67.3684C290.309 68.0984 289.369 68.4584 288.329 68.4584C287.289 68.4584 286.439 68.3584 285.729 68.2184ZM285.409 64.0784C285.809 63.2184 286.019 62.3884 286.019 61.5784C286.019 60.7684 285.759 60.3684 285.229 60.3684C285.019 60.3684 284.839 60.5284 284.689 60.8284C284.549 61.1384 284.479 61.4384 284.479 61.7184C284.479 62.6684 284.789 63.4584 285.409 64.0784Z" fill="#FF441F"/>
<path d="M301.788 56.1888C301.788 54.5988 303.028 53.7988 305.498 53.7988C306.118 53.7988 306.508 53.9988 306.658 54.4088C306.808 54.8188 306.888 55.4288 306.888 56.2688C306.888 57.4388 306.628 59.2488 306.098 61.6988C305.568 64.1488 305.328 65.8088 305.348 66.6588C305.348 67.0688 305.478 67.2688 305.738 67.2688C306.098 67.2688 306.538 67.0388 307.058 66.5888C307.578 66.1388 308.108 65.6388 308.628 65.1088C309.148 64.5788 309.638 64.0788 310.078 63.6288C310.518 63.1788 310.818 62.9488 310.988 62.9488C311.318 62.9488 311.488 63.3588 311.488 64.1588C311.488 65.8288 310.668 67.4288 309.028 68.9788C306.268 70.5988 304.518 71.4088 303.778 71.4088C303.708 71.4088 303.648 71.3988 303.598 71.3688C302.698 71.3688 302.058 71.0688 301.688 70.4788C301.318 69.8888 301.088 69.1388 300.988 68.2288C300.508 69.1088 299.858 69.8688 299.028 70.4988C298.198 71.1288 297.238 71.4488 296.168 71.4488C294.288 71.4488 292.838 71.0888 291.828 70.3788C290.818 69.6688 290.308 68.6088 290.308 67.1988C290.308 66.5788 290.398 66.0088 290.578 65.4888C290.758 64.9688 291.048 64.3188 291.448 63.5588L292.488 54.7788C293.228 54.2088 294.288 53.9188 295.668 53.9188C296.758 53.9188 297.378 54.6288 297.528 56.0588C297.648 57.2288 297.598 58.2688 297.368 59.1788C297.138 60.0988 296.838 61.2488 296.458 62.6388C296.078 64.0288 295.888 65.2588 295.888 66.3288C295.888 67.1888 296.428 67.6188 297.498 67.6188C298.668 67.6188 299.678 66.5988 300.528 64.5488C301.198 62.9788 301.648 61.2288 301.888 59.2988C301.868 59.1088 301.848 58.8688 301.838 58.5688C301.828 58.2688 301.818 57.9788 301.798 57.6888C301.788 57.3988 301.778 57.1188 301.778 56.8288V56.1888H301.788Z" fill="#FF441F"/>
<path d="M317.859 53.9582C319.449 53.9482 320.639 54.2483 321.429 54.8483C322.219 55.4583 322.609 56.3283 322.609 57.4583C322.609 58.5883 322.269 59.5482 321.589 60.3482C320.909 61.1483 320.079 61.7083 319.109 62.0483C319.799 62.7583 320.419 63.4882 320.979 64.2282C321.539 64.9682 321.819 65.7383 321.819 66.5483C321.819 68.1383 321.189 69.3782 319.929 70.2382C318.669 71.1082 316.909 71.5382 314.659 71.5382C312.409 71.5382 310.729 71.0882 309.609 70.1982C308.489 69.3082 307.929 68.2983 307.929 67.1582C307.929 66.0282 308.209 64.9983 308.769 64.0682C309.329 63.1382 309.929 62.6783 310.569 62.6783C310.949 62.6783 311.219 62.8182 311.389 63.0883C311.559 63.3583 311.869 64.1583 312.319 65.4583C312.489 65.9383 312.759 66.3882 313.139 66.8182C314.019 67.7983 315.409 68.2783 317.319 68.2783C317.029 67.3783 316.579 66.5983 315.949 65.9383C315.319 65.2883 314.689 64.6483 314.079 64.0283C313.459 63.4083 312.909 62.7483 312.439 62.0483C311.959 61.3483 311.729 60.5182 311.729 59.5682C311.729 57.8582 312.369 56.4583 313.659 55.3883C314.859 54.4483 316.259 53.9682 317.859 53.9582ZM317.719 60.5782C318.669 59.5582 319.149 58.7383 319.149 58.1183C319.149 57.8283 319.049 57.5783 318.849 57.3483C318.649 57.1183 318.359 57.0082 317.979 57.0082C317.599 57.0082 317.239 57.0582 316.889 57.1482C316.539 57.2482 316.269 57.3183 316.049 57.3583C316.039 58.2683 316.599 59.3382 317.719 60.5782Z" fill="#FF441F"/>
<path d="M185.669 83.4988V86.4788H190.399V88.0187H185.669V91.7687H183.849V81.9688H190.999V83.4988H185.669Z" fill="#06C167"/>
<path d="M195.929 91.2591C195.129 90.8291 194.499 90.2191 194.039 89.4491C193.579 88.6791 193.349 87.8191 193.349 86.8691C193.349 85.9191 193.579 85.0591 194.039 84.2891C194.499 83.5191 195.129 82.9191 195.929 82.4791C196.729 82.0391 197.629 81.8291 198.629 81.8291C199.629 81.8291 200.529 82.0491 201.329 82.4791C202.129 82.9091 202.759 83.5091 203.219 84.2791C203.679 85.0491 203.909 85.9091 203.909 86.8691C203.909 87.8291 203.679 88.6991 203.219 89.4591C202.759 90.2191 202.129 90.8191 201.329 91.2591C200.529 91.6891 199.629 91.9091 198.629 91.9091C197.629 91.9091 196.729 91.6891 195.929 91.2591ZM200.389 89.8691C200.909 89.5791 201.319 89.1691 201.619 88.6391C201.919 88.1091 202.069 87.5191 202.069 86.8691C202.069 86.2191 201.919 85.6291 201.619 85.0991C201.319 84.5691 200.909 84.1591 200.389 83.8691C199.869 83.5791 199.279 83.4291 198.629 83.4291C197.979 83.4291 197.389 83.5791 196.869 83.8691C196.349 84.1591 195.939 84.5791 195.639 85.0991C195.339 85.6191 195.189 86.2191 195.189 86.8691C195.189 87.5191 195.339 88.1091 195.639 88.6391C195.939 89.1691 196.349 89.5791 196.869 89.8691C197.389 90.1591 197.979 90.3091 198.629 90.3091C199.279 90.3091 199.869 90.1691 200.389 89.8691Z" fill="#06C167"/>
<path d="M209.118 91.2591C208.318 90.8291 207.688 90.2191 207.228 89.4491C206.768 88.6791 206.538 87.8191 206.538 86.8691C206.538 85.9191 206.768 85.0591 207.228 84.2891C207.688 83.5191 208.318 82.9191 209.118 82.4791C209.918 82.0391 210.818 81.8291 211.818 81.8291C212.818 81.8291 213.718 82.0491 214.518 82.4791C215.318 82.9091 215.948 83.5091 216.408 84.2791C216.868 85.0491 217.098 85.9091 217.098 86.8691C217.098 87.8291 216.868 88.6991 216.408 89.4591C215.948 90.2191 215.318 90.8191 214.518 91.2591C213.718 91.6891 212.818 91.9091 211.818 91.9091C210.818 91.9091 209.918 91.6891 209.118 91.2591ZM213.578 89.8691C214.098 89.5791 214.508 89.1691 214.808 88.6391C215.108 88.1091 215.258 87.5191 215.258 86.8691C215.258 86.2191 215.108 85.6291 214.808 85.0991C214.508 84.5691 214.098 84.1591 213.578 83.8691C213.058 83.5791 212.468 83.4291 211.818 83.4291C211.168 83.4291 210.578 83.5791 210.058 83.8691C209.538 84.1591 209.128 84.5791 208.828 85.0991C208.528 85.6191 208.378 86.2191 208.378 86.8691C208.378 87.5191 208.528 88.1091 208.828 88.6391C209.128 89.1691 209.538 89.5791 210.058 89.8691C210.578 90.1591 211.168 90.3091 211.818 90.3091C212.468 90.3091 213.058 90.1691 213.578 89.8691Z" fill="#06C167"/>
<path d="M220.429 81.9688H224.709C225.749 81.9688 226.679 82.1688 227.499 82.5788C228.309 82.9888 228.939 83.5588 229.389 84.2988C229.839 85.0388 230.059 85.8988 230.059 86.8688C230.059 87.8388 229.839 88.6988 229.389 89.4388C228.939 90.1788 228.309 90.7588 227.499 91.1588C226.689 91.5688 225.759 91.7687 224.709 91.7687H220.429V81.9688ZM224.629 90.2288C225.349 90.2288 225.979 90.0888 226.529 89.8188C227.079 89.5488 227.499 89.1488 227.789 88.6388C228.079 88.1288 228.229 87.5388 228.229 86.8688C228.229 86.1988 228.079 85.6088 227.789 85.0988C227.499 84.5888 227.079 84.1988 226.529 83.9188C225.979 83.6388 225.349 83.5088 224.629 83.5088H222.249V90.2288H224.629Z" fill="#06C167"/>
<path d="M238.649 81.9688H242.929C243.969 81.9688 244.899 82.1688 245.719 82.5788C246.529 82.9888 247.159 83.5588 247.609 84.2988C248.059 85.0388 248.279 85.8988 248.279 86.8688C248.279 87.8388 248.059 88.6988 247.609 89.4388C247.159 90.1788 246.529 90.7588 245.719 91.1588C244.909 91.5688 243.979 91.7687 242.929 91.7687H238.649V81.9688ZM242.849 90.2288C243.569 90.2288 244.199 90.0888 244.749 89.8188C245.299 89.5488 245.719 89.1488 246.009 88.6388C246.299 88.1288 246.449 87.5388 246.449 86.8688C246.449 86.1988 246.299 85.6088 246.009 85.0988C245.719 84.5888 245.299 84.1988 244.749 83.9188C244.199 83.6388 243.569 83.5088 242.849 83.5088H240.469V90.2288H242.849Z" fill="#06C167"/>
<path d="M258.968 90.2495V91.7795H251.618V81.9795H258.768V83.5095H253.438V86.0595H258.168V87.5595H253.438V90.2595H258.968V90.2495Z" fill="#06C167"/>
<path d="M262.399 81.9688H264.219V90.2288H269.339V91.7687H262.399V81.9688Z" fill="#06C167"/>
<path d="M272.179 81.9688H273.999V91.7687H272.179V81.9688Z" fill="#06C167"/>
<path d="M286.939 81.9688L282.669 91.7687H280.879L276.599 81.9688H278.569L281.829 89.5288L285.119 81.9688H286.939Z" fill="#06C167"/>
<path d="M296.728 90.2495V91.7795H289.378V81.9795H296.528V83.5095H291.198V86.0595H295.928V87.5595H291.198V90.2595H296.728V90.2495Z" fill="#06C167"/>
<path d="M306.569 91.7687L304.569 88.8988C304.489 88.9088 304.359 88.9088 304.189 88.9088H301.979V91.7687H300.159V81.9688H304.189C305.039 81.9688 305.779 82.1088 306.409 82.3888C307.039 82.6688 307.519 83.0688 307.859 83.5888C308.199 84.1088 308.359 84.7287 308.359 85.4487C308.359 86.1887 308.179 86.8188 307.819 87.3488C307.459 87.8788 306.939 88.2787 306.269 88.5387L308.519 91.7588H306.569V91.7687ZM305.909 84.0187C305.499 83.6787 304.899 83.5187 304.099 83.5187H301.969V87.4288H304.099C304.889 87.4288 305.499 87.2588 305.909 86.9188C306.319 86.5788 306.529 86.0988 306.529 85.4688C306.529 84.8288 306.319 84.3487 305.909 84.0187Z" fill="#06C167"/>
<path d="M315.878 88.3088V91.7687H314.058V88.3388L310.208 81.9688H312.158L315.028 86.7388L317.928 81.9688H319.718L315.878 88.3088Z" fill="#06C167"/>
<path d="M132.639 46.6886C132.149 46.1986 131.909 45.6086 131.779 44.9886C131.659 44.3686 131.679 43.7086 131.899 43.0586C132.119 42.4186 132.559 41.7886 133.189 41.4086C133.819 41.0286 134.579 40.9986 135.189 41.2586C134.719 41.7786 134.399 42.1386 134.189 42.5286C133.989 42.9086 133.859 43.2686 133.709 43.6786C133.569 44.0886 133.439 44.5486 133.279 45.0386C133.109 45.5386 132.929 46.0686 132.639 46.6886Z" fill="white"/>
<path d="M172.458 93.2488H98.5583C97.2983 93.2488 96.2783 92.2287 96.2783 90.9688V90.7488C96.2783 89.4888 97.2983 88.4688 98.5583 88.4688H172.458C173.718 88.4688 174.738 89.4888 174.738 90.7488V90.9688C174.738 92.2287 173.718 93.2488 172.458 93.2488Z" fill="#FF441F"/>
<rect x="480.887" y="1" width="416.887" height="129.5" rx="16" stroke="#DCDCDC" stroke-width="1.5"/>
<path d="M583.567 63.3214C586.431 63.3214 589.922 63.1017 591.226 62.6913C591.226 65.3622 589.666 66.4317 588.513 66.5473C586.953 66.6571 585.016 66.8421 582.749 66.8421C582.227 66.8421 581.671 66.8421 581.149 66.9173C580.964 67.4376 580.853 67.9926 580.703 68.5476C579.734 72.8083 579.253 75.219 579.253 76.6643C579.253 77.4043 579.624 78.1096 579.624 78.52C578.772 79.1155 577.247 79.4103 575.983 79.4103C574.162 79.4103 573.565 78.7802 573.565 77.4101C573.565 76.5602 573.751 75.67 573.977 74.7392C574.313 73.2592 574.609 71.8139 574.98 70.3282C576.841 63.2867 578.36 57.9507 578.36 54.8405C578.36 54.2855 578.395 53.6149 578.175 53.69C577.693 53.7999 577.206 53.7999 576.986 53.7999C576.876 53.7652 576.835 53.5802 576.876 53.1697C576.876 52.8344 576.951 52.4644 577.096 52.1349C577.763 50.7994 578.064 50.5393 579.212 50.4294C582.332 50.1346 585.492 49.9843 588.652 49.9843C590.136 49.9843 591.516 49.834 592.554 49.834C594.038 49.834 594.635 49.9843 595.117 50.4988C594.856 52.2794 593.818 54.3548 592.183 54.3548C591.736 54.3548 591.029 53.4299 589.063 53.4299H587.689C586.651 53.4299 585.683 53.3547 584.9 53.3547H583.19C583.561 53.7652 583.712 54.1352 583.712 54.5398C583.712 54.7595 583.712 54.9098 583.677 55.17C583.265 57.2454 582.523 60.6158 581.856 63.3214H583.567Z" fill="#FF513E"/>
<path d="M601.743 58.6162C605.795 58.6162 608.544 61.0963 608.544 65.2125C608.544 72.1788 603.117 79.2202 596.501 79.2202C592.413 79.2202 589.7 76.6245 589.7 72.3291C589.7 68.7332 590.964 65.5131 593.306 62.7671C595.608 60.206 598.507 58.6162 601.743 58.6162ZM600.623 61.3565C597.313 61.3565 595.162 68.4731 595.162 72.7338C595.162 74.919 595.828 76.5146 597.614 76.5146C600.884 76.5146 603.001 69.4732 603.001 65.2125C603.006 63.0214 602.409 61.3565 600.623 61.3565Z" fill="#FF513E"/>
<path d="M621.625 58.6162C625.678 58.6162 628.426 61.0963 628.426 65.2125C628.426 72.1788 622.999 79.2202 616.384 79.2202C612.296 79.2202 609.583 76.6245 609.583 72.3291C609.583 68.7332 610.847 65.5131 613.189 62.7671C615.497 60.206 618.396 58.6162 621.625 58.6162ZM620.512 61.3565C617.201 61.3565 615.05 68.4731 615.05 72.7338C615.05 74.919 615.717 76.5146 617.503 76.5146C620.773 76.5146 622.889 69.4732 622.889 65.2125C622.889 63.0214 622.298 61.3565 620.512 61.3565Z" fill="#FF513E"/>
<path d="M651.028 71.918C651.179 71.918 651.248 72.0278 651.248 72.2533C651.248 74.9935 647.312 78.9594 644.668 78.9594C642.511 78.9594 641.322 77.6991 641.322 74.9184C641.322 74.0281 641.432 72.8082 641.543 72.0625C638.493 77.0632 635.373 79.1791 632.811 79.1791C630.468 79.1791 629.059 77.2135 629.059 74.2478C629.059 67.3162 634.486 58.8294 640.806 58.8294C642.256 58.8294 643.294 59.1994 644.372 59.7949C644.929 57.6096 645.224 55.6093 645.224 54.0889C645.224 53.4934 645.149 52.9384 644.853 52.4586C646.152 51.7186 647.567 51.3486 648.645 51.3486C650.06 51.3486 650.727 52.0886 650.727 53.4241C650.727 54.5745 650.506 55.6498 650.245 56.7598C648.384 64.6915 646.564 70.3628 646.564 73.5078C646.564 74.2478 646.784 74.7334 646.975 75.0629C647.346 74.9877 648.054 74.4674 648.796 73.7679C649.95 72.5076 650.698 71.918 651.028 71.918ZM643.45 64.1365C643.189 62.6912 641.89 61.6911 640.476 61.6911C637.501 61.6911 634.457 68.0677 634.457 73.3632C634.533 74.6582 634.904 75.2884 635.646 75.2884C636.649 75.2884 638.284 73.4731 640.145 70.3975C641.403 68.3568 642.517 66.212 643.45 64.1365Z" fill="#FF513E"/>
<path d="M686.269 59.8005C686.269 70.3279 678.053 79.4043 669.095 79.4043C666.492 79.4043 663.929 78.5545 661.847 76.9589C661.813 76.6236 661.882 76.2536 662.033 75.5483C663.558 68.767 665.529 61.2458 666.382 56.6093C666.457 56.2393 666.492 55.9445 666.492 55.719C666.492 54.609 665.378 54.9385 665.378 54.1234C665.378 53.158 665.674 52.1578 666.231 51.3427C668.608 50.4524 671.919 49.7471 675.113 49.7471C681.996 49.7586 686.269 52.759 686.269 59.8005ZM680.691 60.8006C680.691 55.9445 678.499 53.0539 674.412 53.0539C673.815 53.0539 672.516 53.2042 671.513 53.4239C671.698 53.9789 671.774 54.5339 671.774 55.1293C671.774 57.91 669.025 68.2467 667.837 74.0279C668.173 75.4732 669.101 76.0282 671.258 76.0282C676.603 76.0282 680.691 68.2467 680.691 60.8006Z" fill="#454342"/>
<path d="M702.844 73.0286C703.365 73.9536 703.29 75.104 702.623 75.9539C701.991 76.7343 701.064 77.4338 699.834 77.9541C697.973 78.804 696.042 79.2144 693.961 79.2144C689.612 79.2144 687.125 77.324 686.934 73.5084C686.748 69.6929 688.088 65.9467 690.65 63.1718C693.138 60.206 696.338 58.6162 699.643 58.6162C702.762 58.6162 704.253 59.9517 704.212 62.4722C704.212 64.9928 700.942 68.2187 695.927 69.9935C694.738 70.404 692.32 71.4735 692.285 72.4389C692.251 73.3292 692.361 74.1039 692.697 74.5895C693.515 75.7746 694.854 76.4799 696.263 76.2949C698.907 76.029 700.913 74.8843 702.844 73.0286ZM692.662 69.9183C693.294 68.5482 694.407 68.0626 695.782 67.3226C698.159 66.0276 698.831 64.802 699.202 63.5071C699.574 62.2121 699.127 61.0963 697.788 61.0963C695.782 61.0963 694.106 63.6516 693.027 68.2476C693.033 68.2476 692.883 68.8777 692.662 69.9183Z" fill="#454342"/>
<path d="M713.587 74.2532C715.257 73.0276 716.562 71.9927 716.933 71.9927C717.228 71.9927 716.933 72.698 715.779 74.548C714.068 77.2189 710.392 79.0688 708.531 79.0688C706.56 79.0688 705.221 77.9936 705.221 75.6984C705.186 74.8833 705.331 73.993 705.557 72.5882C705.632 72.2933 705.667 71.958 705.708 71.6227C704.368 72.5882 703.812 72.9582 703.702 72.9582C703.551 72.9582 704.409 72.1777 705.522 71.2181C705.487 71.2527 705.598 71.1429 705.858 70.9232C707.233 65.0669 708.868 59.1008 710.619 53.3196C710.804 52.7646 711.285 52.1345 711.883 51.724C712.48 51.3135 713.147 51.2037 713.703 51.2442C714.782 51.3193 715.819 51.6142 716.863 52.3946C717.014 52.5449 717.124 52.7299 717.159 52.9496C717.159 52.9843 717.269 53.4294 717.269 54.2851C717.269 54.6551 717.269 55.1002 717.194 55.58C717.008 57.1352 716.301 58.9909 715.524 60.8062C714.26 63.6968 712.404 66.2173 711.697 67.1423L711.662 67.362C711.587 67.6973 711.512 68.0673 711.401 68.4373C711.14 69.6224 710.474 72.698 710.474 73.623C710.474 74.363 710.474 75.1781 710.845 75.1781C711.917 75.1781 712.804 74.8081 713.587 74.2532ZM712.213 65.0611C713.031 63.876 714.034 62.2052 714.816 60.3553C715.599 58.6151 716.266 56.8345 716.417 55.4239C716.451 54.9036 716.492 54.4238 716.451 54.0538C716.451 53.6838 715.97 53.5335 715.785 53.8688C715.675 54.0538 715.564 54.2793 715.489 54.499C714.857 56.1639 714.3 57.8347 713.819 59.4996C713.216 61.3207 712.694 63.2054 712.213 65.0611Z" fill="#454342"/>
<path d="M725.183 73.884C726.819 72.1034 727.636 71.6236 727.636 72.3635C727.636 72.7335 727.451 73.3984 727.039 74.3638C726.001 76.7746 722.986 79.0697 721.055 79.0697C719.084 79.0697 717.895 77.9597 717.745 75.6588C717.669 74.8437 717.745 72.4734 718.487 69.6927C719.119 67.4669 719.455 65.2816 719.716 63.9115C719.867 63.1715 719.901 62.4662 719.901 61.9112C719.901 61.2059 719.716 60.6163 719.345 60.0555C720.644 59.5756 721.908 59.275 723.061 59.275C723.693 59.275 724.476 59.3849 724.923 59.8705C725.369 60.3503 725.52 60.9805 725.369 61.7956C725.259 62.3911 725.149 62.9807 724.957 63.6514C724.401 65.7268 723.728 68.0624 723.508 69.0972C723.212 70.3922 722.951 72.5081 722.951 73.5834C722.951 74.3234 722.986 75.179 723.363 75.179C723.809 75.179 724.441 74.5835 725.183 73.884ZM726.969 49.7939C725.183 49.7939 723.438 50.1293 721.913 50.7189C721.989 50.9039 722.099 51.0542 722.099 51.2392C722.134 52.7192 721.502 54.8351 721.502 55.9104C721.502 56.5059 721.913 57.2805 723.473 56.9452C725.63 56.5001 725.589 56.5348 727.224 54.02C728.193 52.54 728.523 51.9098 728.709 51.2045C728.743 51.0195 728.743 50.9097 728.743 50.7594C728.714 50.1986 728.123 49.7939 726.969 49.7939Z" fill="#454342"/>
<path d="M742.837 60.3561C742.837 59.6913 742.426 58.4657 741.985 57.9858C742.431 57.9107 743.063 57.876 743.359 57.876C746.038 57.876 747.226 58.5813 747.226 60.5816C747.226 62.1772 745.997 65.0677 743.324 69.1781C739.532 75.0344 736.262 79.22 732.065 79.22C731.804 79.22 731.543 79.22 731.282 79.1448C731.282 78.6245 731.357 77.8498 731.357 77.2197C731.392 74.5488 730.945 69.6233 730.203 65.2874C729.682 62.287 729.31 60.7319 728.493 60.1017C729.942 59.2114 731.357 58.7316 732.656 58.7316C734.216 58.7316 735.143 59.8069 735.294 62.102C735.665 64.8076 735.775 68.6231 735.775 71.7739C735.775 72.6237 735.775 73.4388 735.741 74.2944C737.897 71.479 739.492 68.8833 740.756 66.5882C742.246 63.952 742.837 61.8361 742.837 60.3561Z" fill="#454342"/>
<path d="M762.76 73.0286C763.281 73.9536 763.206 75.104 762.539 75.9539C761.907 76.7343 760.98 77.4338 759.75 77.9541C757.889 78.804 755.958 79.2144 753.877 79.2144C749.528 79.2144 747.041 77.324 746.85 73.5084C746.664 69.6929 748.004 65.9467 750.566 63.1718C753.054 60.206 756.254 58.6162 759.559 58.6162C762.678 58.6162 764.169 59.9517 764.128 62.4722C764.128 64.9928 760.858 68.2187 755.843 69.9935C754.654 70.404 752.236 71.4735 752.201 72.4389C752.167 73.3292 752.277 74.1039 752.613 74.5895C753.431 75.7746 754.77 76.4799 756.179 76.2949C758.823 76.029 760.829 74.8843 762.76 73.0286ZM752.578 69.9183C753.21 68.5482 754.323 68.0626 755.698 67.3226C758.075 66.0276 758.747 64.802 759.118 63.5071C759.489 62.2121 759.043 61.0963 757.704 61.0963C755.698 61.0963 754.022 63.6516 752.943 68.2476C752.949 68.2476 752.804 68.8777 752.578 69.9183Z" fill="#454342"/>
<path d="M781.015 74.1028C779.785 76.583 776.515 79.0342 774.55 79.0342C772.468 79.0342 771.094 77.9589 771.39 75.5134C771.54 73.993 772.242 71.6979 772.654 70.3971C773.025 69.0617 774.7 64.246 774.921 63.4655C775.141 62.7255 775.292 62.3556 774.811 62.4307C774.474 62.5059 772.99 62.7255 771.541 62.7255C771.28 63.4655 770.874 64.616 770.201 65.8358C769.534 67.0209 768.676 68.2465 767.859 68.8767C766.89 69.582 765.777 69.9115 764.774 69.5068C766.67 67.2811 767.378 65.4311 767.522 62.7255C764.026 61.4306 767.076 56.6091 768.636 56.9444C768.601 57.9098 766.479 60.4998 775.773 58.91C777.002 58.6152 779.675 57.9445 780.156 60.1703C780.678 62.6909 779.078 65.541 778.295 68.0269C777.663 70.137 776.956 71.9523 776.846 73.2877C776.811 74.1028 776.736 75.0278 777.182 74.9931C777.594 74.9585 778.295 74.3283 779.153 73.623C781.873 70.8076 782.505 71.062 781.015 74.1028Z" fill="#454342"/>
<path d="M777.969 84.4801C777.969 83.7748 778.265 82.8498 778.636 82.0694C778.973 82.3642 779.9 82.6648 780.497 82.6648C782.799 82.6648 785.066 80.7744 786.777 78.3289C787.038 77.959 787.113 77.3288 787.113 76.6235C787.113 75.9934 787.038 75.3285 786.962 74.7678C785.924 66.3562 784.62 61.13 783.28 60.0952C784.765 59.2049 786.18 58.7251 787.478 58.7251C788.852 58.7251 789.78 59.6905 790.082 61.766C790.638 65.5468 791.119 70.1428 791.38 73.8081C795.062 68.6224 797.66 63.6159 797.66 60.9508C797.66 60.286 797.248 59.0604 796.807 58.5805C797.254 58.5054 797.886 58.4707 798.181 58.4707C800.895 58.4707 802.084 59.2858 802.084 60.9913C802.084 63.3269 798.216 69.8133 792.308 77.5543C786.846 84.7807 783.576 86.6711 780.822 86.6711C779.222 86.6711 778.219 86.0757 777.998 84.8906C777.969 84.7749 777.969 84.6304 777.969 84.4801Z" fill="#454342"/>
<rect x="960.775" y="1" width="416.887" height="129.5" rx="16" stroke="#DCDCDC" stroke-width="1.5"/>
<path d="M1050.96 85.7655V53.5055C1050.96 50.6755 1051.71 48.5555 1053.2 47.1455C1054.61 45.8155 1056.93 45.1455 1060.15 45.1455C1060.93 45.1455 1061.56 45.1855 1062.03 45.2655C1062.89 45.2655 1063.56 45.3055 1064.03 45.3855V51.8555H1061.91C1060.81 51.8555 1060.03 52.0155 1059.56 52.3255C1059.16 52.6455 1058.97 53.2655 1058.97 54.2155V56.3355H1064.03V58.1055C1064.03 59.2855 1063.64 60.2455 1062.85 60.9855C1062.06 61.7355 1061.16 62.1055 1060.14 62.1055H1058.97V85.7655H1050.96Z" fill="#142328"/>
<path d="M1070.31 82.9358C1068.66 81.5258 1067.48 79.6158 1066.78 77.2258C1066.07 74.8358 1065.72 72.3358 1065.72 69.7458C1065.72 67.6258 1066.01 65.5058 1066.6 63.3858C1067.19 61.2658 1068.11 59.5058 1069.37 58.0858C1071.41 55.7358 1074.04 54.3358 1077.26 53.9058C1080.48 53.4758 1083.38 53.7258 1085.97 54.6658C1088.95 55.8458 1091.15 57.8858 1092.56 60.7858C1093.89 63.3758 1094.56 66.3958 1094.56 69.8558C1094.56 72.3658 1094.28 74.5258 1093.74 76.3358C1093.19 78.1458 1092.48 79.6758 1091.62 80.9258C1089.74 83.5158 1087.34 85.1258 1084.44 85.7558C1081.85 86.4658 1079.24 86.5258 1076.61 85.9358C1073.98 85.3458 1071.88 84.3458 1070.31 82.9358ZM1075.96 62.2158C1074.31 64.0258 1073.57 66.7058 1073.72 70.2758C1073.88 73.8458 1074.54 76.3358 1075.72 77.7558C1076.19 78.3858 1077.02 78.9158 1078.19 79.3458C1079.37 79.7758 1080.56 79.8158 1081.78 79.4658C1083 79.1158 1084.08 78.2258 1085.02 76.8158C1085.96 75.4058 1086.47 73.1258 1086.55 69.9858C1086.55 67.1558 1086.1 65.0458 1085.2 63.6258C1084.3 62.2158 1083.26 61.3158 1082.08 60.9158C1080.9 60.5258 1079.73 60.5058 1078.55 60.8558C1077.37 61.2158 1076.51 61.6658 1075.96 62.2158Z" fill="#142328"/>
<path d="M1101.55 82.9355C1099.9 81.5255 1098.72 79.6155 1098.02 77.2255C1097.31 74.8355 1096.96 72.3455 1096.96 69.7555C1096.96 67.6355 1097.25 65.5155 1097.84 63.3955C1098.43 61.2755 1099.35 59.5155 1100.61 58.0955C1102.65 55.7455 1105.28 54.3455 1108.5 53.9155C1111.72 53.4855 1114.62 53.7355 1117.21 54.6755C1120.19 55.8555 1122.39 57.8955 1123.8 60.7955C1125.13 63.3855 1125.8 66.4055 1125.8 69.8655C1125.8 72.3755 1125.52 74.5355 1124.98 76.3455C1124.43 78.1555 1123.72 79.6855 1122.86 80.9355C1120.98 83.5255 1118.58 85.1355 1115.68 85.7655C1113.09 86.4755 1110.48 86.5355 1107.85 85.9455C1105.22 85.3455 1103.12 84.3455 1101.55 82.9355ZM1107.2 62.2155C1105.55 64.0255 1104.81 66.7055 1104.96 70.2755C1105.12 73.8455 1105.78 76.3355 1106.96 77.7555C1107.43 78.3855 1108.26 78.9155 1109.43 79.3455C1110.61 79.7755 1111.8 79.8155 1113.02 79.4655C1114.24 79.1155 1115.32 78.2255 1116.26 76.8155C1117.2 75.4055 1117.71 73.1255 1117.79 69.9855C1117.79 67.1555 1117.34 65.0455 1116.44 63.6255C1115.54 62.2155 1114.5 61.3155 1113.32 60.9155C1112.14 60.5255 1110.97 60.5055 1109.79 60.8555C1108.61 61.2155 1107.75 61.6655 1107.2 62.2155Z" fill="#142328"/>
<path d="M1149.63 45.1455H1153.63C1154.73 45.1455 1155.67 45.5555 1156.46 46.3855C1157.24 47.2055 1157.64 48.1355 1157.64 49.1555V72.1155C1157.64 77.6855 1156.03 81.4555 1152.81 83.4155C1149.59 85.3755 1146.1 86.3555 1142.33 86.3555C1140.29 86.3555 1138.29 86.0155 1136.33 85.3555C1134.37 84.6855 1132.8 83.6055 1131.62 82.1155C1129.34 79.2155 1128.21 75.2455 1128.21 70.2255C1128.21 65.2855 1129.35 61.3155 1131.62 58.3355C1133.98 55.2755 1137 53.7455 1140.68 53.7455C1142.64 53.7455 1144.37 54.1355 1145.86 54.9255C1147.43 55.8655 1148.68 57.0855 1149.63 58.5755V45.1455ZM1136.2 69.8655C1136.2 73.0055 1136.79 75.3955 1137.97 77.0455C1139.15 78.6955 1140.83 79.5155 1143.03 79.5155C1145.15 79.5155 1146.8 78.6855 1147.97 77.0455C1149.07 75.3955 1149.62 73.0055 1149.62 69.8655C1149.62 67.0355 1149.03 64.8055 1147.85 63.1555C1146.59 61.5855 1144.91 60.7955 1142.79 60.7955C1140.75 60.7955 1139.14 61.6255 1137.96 63.2655C1136.79 64.8455 1136.2 67.0455 1136.2 69.8655Z" fill="#142328"/>
<path d="M1182.63 76.1056H1188.52C1187.65 79.4056 1186.01 81.9156 1183.57 83.6356C1181.14 85.4456 1178.08 86.3456 1174.39 86.3456C1169.92 86.3456 1166.42 84.8956 1163.91 81.9856C1161.4 79.1556 1160.14 75.1156 1160.14 69.8556C1160.14 64.8356 1161.36 60.9056 1163.79 58.0856C1166.3 55.1856 1169.79 53.7256 1174.27 53.7256C1178.98 53.7256 1182.63 55.1356 1185.22 57.9656C1186.63 59.6956 1187.65 61.6956 1188.28 63.9656H1180.04C1179.65 63.1856 1179.25 62.5956 1178.86 62.1956C1177.84 61.0956 1176.39 60.5456 1174.5 60.5456C1172.77 60.5456 1171.36 61.0956 1170.26 62.1956C1168.85 63.7656 1168.14 66.3556 1168.14 69.9656C1168.14 73.5756 1168.85 76.1256 1170.26 77.6156C1171.28 78.8756 1172.81 79.4956 1174.85 79.4956C1176.18 79.4956 1177.32 79.2256 1178.26 78.6656C1178.49 78.5856 1178.71 78.4556 1178.91 78.2556C1179.11 78.0556 1179.32 77.8456 1179.56 77.6056C1179.72 77.3656 1180.03 77.0556 1180.5 76.6656C1180.98 76.3056 1181.69 76.1056 1182.63 76.1056Z" fill="#06C167"/>
<path d="M1195.52 82.9358C1193.87 81.5258 1192.69 79.6158 1191.99 77.2258C1191.28 74.8358 1190.93 72.3358 1190.93 69.7458C1190.93 67.6258 1191.22 65.5058 1191.81 63.3858C1192.4 61.2658 1193.32 59.5058 1194.58 58.0858C1196.62 55.7358 1199.25 54.3358 1202.47 53.9058C1205.69 53.4758 1208.59 53.7258 1211.18 54.6658C1214.16 55.8458 1216.36 57.8858 1217.77 60.7858C1219.1 63.3758 1219.77 66.3958 1219.77 69.8558C1219.77 72.3658 1219.49 74.5258 1218.94 76.3358C1218.39 78.1458 1217.68 79.6758 1216.82 80.9258C1214.94 83.5158 1212.54 85.1258 1209.64 85.7558C1207.05 86.4658 1204.44 86.5258 1201.81 85.9358C1199.18 85.3458 1197.09 84.3458 1195.52 82.9358ZM1201.17 62.2158C1199.52 64.0258 1198.78 66.7058 1198.93 70.2758C1199.09 73.8458 1199.75 76.3358 1200.93 77.7558C1201.4 78.3858 1202.22 78.9158 1203.4 79.3458C1204.58 79.7758 1205.77 79.8158 1206.99 79.4658C1208.21 79.1158 1209.28 78.2258 1210.23 76.8158C1211.17 75.4058 1211.68 73.1258 1211.76 69.9858C1211.76 67.1558 1211.31 65.0458 1210.41 63.6258C1209.51 62.2158 1208.47 61.3158 1207.29 60.9158C1206.11 60.5258 1204.94 60.5058 1203.76 60.8558C1202.58 61.2158 1201.72 61.6658 1201.17 62.2158Z" fill="#06C167"/>
<path d="M1250.17 54.4455V72.8155C1250.17 78.3855 1248.72 82.0355 1245.81 83.7655C1242.91 85.4955 1239.73 86.3555 1236.27 86.3555C1232.89 86.1955 1229.81 85.2555 1227.03 83.5255C1224.24 81.7955 1222.85 78.2255 1222.85 72.8155V54.4455H1231.09V74.4555C1231.09 76.3355 1231.64 77.7155 1232.74 78.5755C1233.84 79.4355 1235.09 79.8755 1236.51 79.8755C1237.92 79.8755 1239.2 79.4455 1240.34 78.5755C1241.48 77.7155 1242.05 76.3355 1242.05 74.4555V58.4455C1242.05 57.3455 1242.42 56.4055 1243.17 55.6155C1243.91 54.8355 1244.88 54.4355 1246.05 54.4355H1250.17V54.4455Z" fill="#06C167"/>
<path d="M1253.28 85.7661V70.5761C1253.28 67.5161 1253.73 64.9461 1254.63 62.8661C1255.53 60.7861 1256.77 59.1161 1258.34 57.8661C1259.83 56.6861 1261.58 55.8261 1263.58 55.2761C1265.58 54.7261 1267.64 54.4561 1269.76 54.4561C1269.92 54.4561 1270.11 54.4561 1270.35 54.4561C1270.59 54.4561 1270.78 54.4561 1270.94 54.4561V62.8161H1268.23C1265.95 62.8161 1264.27 63.3661 1263.17 64.4661C1262.07 65.5661 1261.52 67.2961 1261.52 69.6461V85.7761H1253.28V85.7661Z" fill="#06C167"/>
<path d="M1287.46 85.7656C1284.87 85.9256 1282.06 85.8856 1279.04 85.6456C1276.02 85.4056 1274.51 83.4856 1274.51 79.8756V45.2656H1278.75C1279.77 45.2656 1280.67 45.6556 1281.46 46.4456C1282.24 47.2356 1282.64 48.1756 1282.64 49.2756V54.5756H1287.47V56.2256C1287.47 57.4056 1287.08 58.3656 1286.29 59.1056C1285.5 59.8556 1284.56 60.2256 1283.46 60.2256H1282.64V77.6456C1282.64 78.9756 1283.42 79.6456 1284.99 79.6456H1287.46V85.7656Z" fill="#06C167"/>
</svg>
