<svg width="1379" height="132" viewBox="0 0 1379 132" fill="none" xmlns="http://www.w3.org/2000/svg">
<rect x="1" y="1.5" width="416.887" height="129.5" rx="16" stroke="#DCDCDC" stroke-width="1.5"/>
<path d="M341.561 66.7542C341.52 66.7054 341.504 66.6451 341.493 66.585C341.516 66.6394 341.538 66.6998 341.561 66.7542C341.584 66.2639 341.529 65.8077 341.367 65.3849C340.974 64.3641 340.593 63.3376 340.206 62.3109C340.056 61.3796 339.601 60.6925 339.178 60.2038C337.944 58.7681 336.504 57.9801 334.969 57.6687C334.725 57.3996 334.44 57.6144 334.181 57.5125C332.394 56.7942 330.58 56.9611 328.766 57.3854C328.485 57.4506 328.207 57.3602 327.93 57.5034C327.231 57.8581 326.493 57.8228 325.775 57.9975C324.823 58.2325 323.856 58.3355 322.902 58.6243C322.327 58.7964 321.746 58.9204 321.171 59.0566C320.585 59.1924 319.998 59.3283 319.412 59.4582C319.275 59.449 319.138 59.4697 318.999 59.5502C318.492 59.5862 317.982 59.4904 317.482 59.7361C317.411 59.7404 317.339 59.7387 317.268 59.743C315.748 59.8091 314.234 59.6358 312.715 59.8935C310.7 59.7624 308.686 59.6073 306.707 58.9443C306.34 58.822 305.982 58.6399 305.6 58.6669C305.114 58.5777 304.725 58.1316 304.304 57.8164C303.971 57.5692 303.662 57.2507 303.342 56.9678C303.08 56.6863 302.779 56.5775 302.484 56.4568C302.092 56.1723 301.7 55.8817 301.308 55.5972C300.555 54.9749 299.801 54.3587 299.048 53.7364C299.067 53.3957 298.898 53.2421 298.765 53.0773C298.291 52.4736 297.786 51.9231 297.243 51.4853C296.606 50.9675 296.107 50.1537 295.514 49.5413C295.247 49.2596 294.984 48.7985 294.844 49.9445C294.673 49.3479 294.478 49.0321 294.246 48.7692C294.311 48.3218 294.375 47.8565 294.212 47.4576C293.739 46.3092 293.935 45.0328 294.011 43.8255C294.131 42.0206 294.299 40.2109 293.91 38.4959C293.592 37.0818 293.154 35.7067 292.244 34.9311C292.135 34.7371 291.99 34.5601 291.833 34.6761C291.597 34.8441 291.452 34.6731 291.333 34.4309C291.128 34.0131 290.844 33.9226 290.535 33.8974C290.323 33.5572 290.055 33.5449 289.775 33.5802L289.776 33.5503C289.579 33.3063 289.344 33.4384 289.13 33.4035C289.106 33.4328 289.081 33.4442 289.058 33.4437C289.082 33.4263 289.106 33.4209 289.13 33.4035C288.061 33.0551 286.972 33.275 285.889 33.2615C281.953 33.2529 278.012 33.2501 274.077 33.2415C273.796 33.2888 273.524 33.2285 273.244 33.2279C270.922 33.2093 268.6 33.2266 266.278 33.2319C266.129 33.2284 265.986 33.231 265.837 33.2275C265.73 33.219 265.624 33.2046 265.516 33.202C256.122 33.1909 246.733 33.1739 237.339 33.1687C233.481 33.1679 229.622 33.179 225.764 33.1782C225.55 33.1792 225.342 33.1803 225.127 33.1812C220.865 33.1769 216.608 33.1667 212.345 33.1623C209.642 33.1587 206.939 33.1551 204.237 33.1515C202.385 33.1439 200.528 33.1242 198.676 33.1286C195.11 33.1287 191.544 33.1347 187.983 33.1408C186.465 33.1411 184.953 33.1355 183.435 33.1358C183.22 33.1367 183.006 33.1377 182.786 33.1385C182.714 33.1368 182.637 33.135 182.566 33.1333C182.387 33.1231 182.209 33.107 182.025 33.1026C177.524 33.0927 173.023 33.0828 168.522 33.0848C165.117 33.0826 161.717 33.0986 158.311 33.1024C158.204 33.0998 158.091 33.1032 157.984 33.1007C157.406 33.0991 156.823 33.0973 156.245 33.0957C153.685 33.0955 151.119 33.0891 148.559 33.0888C148.309 33.077 148.054 33.059 147.804 33.0591C144.166 33.0515 140.529 33.0439 136.891 33.0422C133.527 33.041 130.157 33.0517 126.793 33.0565C126.502 33.0556 126.216 33.0549 125.924 33.06C125.71 33.055 125.496 33.014 125.281 33.0449C124.881 33.1013 124.459 33.0794 124.091 33.3042C123.45 33.6962 123.256 34.6374 123.173 35.6291C123.069 35.7404 123.077 35.9201 123.061 36.0873C122.856 37.9441 122.913 39.8249 122.792 41.6956C122.736 42.5742 122.478 43.4002 122.535 44.2934C122.52 44.6462 122.506 44.999 122.492 45.3578C122.187 45.8894 122.55 46.694 122.163 47.1937C121.624 47.3187 121.139 47.6724 120.739 48.2437C120.394 48.7383 120.015 49.1544 119.636 49.5825C119.439 49.6078 119.253 49.6752 119.059 49.7904C116.903 51.0925 114.905 53.0209 112.673 54.016C112.228 54.215 111.787 54.474 111.347 54.7091C110.204 54.9456 109.086 55.4102 107.925 55.4308C106.68 55.4554 105.44 55.2527 104.198 55.4151C102.568 55.3469 100.947 55.1652 99.3162 55.4082C97.9193 55.0581 96.5164 54.7139 95.1195 54.3639C94.3022 54.1831 93.4769 54.0859 92.6796 53.8098C91.7465 53.4886 90.8025 53.3766 89.8571 53.3245C88.1269 53.224 86.4147 53.6267 84.7167 54.1854C84.0712 54.0385 83.4886 54.5097 82.8771 54.6869C82.0125 54.7444 81.2632 55.469 80.4566 55.8451C79.7558 56.529 78.9461 57.0367 78.3714 57.9331C77.3084 59.5901 76.901 61.7294 77.0364 64.073C77.1144 65.3138 77.2405 66.5379 77.595 67.6655C77.741 68.2975 77.8442 68.9703 78.2336 69.3745C78.2228 69.5837 78.2605 69.7522 78.3458 69.9218C79.1528 71.5569 80.2468 72.6361 81.4129 73.4297C83.8216 75.0605 86.3941 75.2885 89.0019 75.0325C89.2585 75.0086 89.5246 75.0867 89.7675 74.8829C89.9453 74.917 90.1275 75.017 90.2954 74.9671C91.7811 74.577 93.2857 74.6483 94.7723 74.2163C97.0383 73.5572 99.3442 73.4797 101.632 73.1623C102.307 73.0644 102.982 72.9486 103.664 72.8389C104.413 72.8984 105.167 72.952 105.916 73.0115C106.347 73.1773 106.771 73.3728 107.203 73.4967C108.533 73.887 109.863 74.2834 111.179 74.7932C112.4 75.2648 113.49 76.278 114.726 76.6243C116.581 77.4999 118.245 78.8917 119.636 81.0314C120.256 81.9797 120.663 83.1864 121.216 84.205C121.827 85.3327 122.059 86.6131 122.072 88.0859C122.082 89.9237 121.997 91.7653 122.228 93.5844C122.4 94.8993 122.675 96.1209 123.246 97.1339C123.549 97.9311 123.932 98.6165 124.426 99.1369C125.402 99.1359 126.372 99.1407 127.349 99.1397C127.456 99.1422 127.563 99.1388 127.676 99.1414C133.052 99.148 138.434 99.1547 143.81 99.1612C144.93 99.1635 146.049 99.1659 147.168 99.1682C147.311 99.1656 147.46 99.1691 147.603 99.1665C148.579 99.1655 149.549 99.1703 150.526 99.1693C152.151 99.1715 153.776 99.1738 155.402 99.1761C159.158 99.1805 162.909 99.1848 166.666 99.1892C170.744 99.1952 174.822 99.2012 178.9 99.2072C184.604 99.2155 190.307 99.2237 196.011 99.226C196.118 99.2285 196.225 99.225 196.338 99.2277C196.701 99.2302 197.058 99.2267 197.422 99.2292C203.845 99.2364 210.269 99.2436 216.699 99.251C217.134 99.2492 217.568 99.2535 217.997 99.2515C223.593 99.2573 229.19 99.263 234.78 99.2746C236.548 99.2742 238.316 99.2798 240.084 99.2795C241.531 99.2835 242.972 99.2815 244.419 99.2855C245.824 99.2886 247.234 99.2918 248.64 99.2889C253.117 99.2923 257.594 99.3016 262.065 99.3049C265.964 99.3127 269.864 99.3145 273.757 99.3221C273.864 99.3246 273.972 99.3212 274.085 99.3238C274.448 99.3264 274.805 99.3228 275.168 99.3253C276.466 99.3259 277.77 99.3266 279.068 99.3331C279.645 99.3347 280.223 99.3363 280.8 99.3379C281.092 99.3388 281.378 99.3395 281.669 99.3404C282.354 99.3385 283.039 99.3426 283.729 99.3409C285.64 99.3438 287.557 99.347 289.468 99.35C289.683 99.349 289.903 99.3482 290.117 99.3532C290.802 99.3513 291.487 99.3554 292.177 99.3537C292.406 98.976 292.78 98.7873 292.836 98.172C292.969 97.846 293.178 97.5695 293.182 97.1387C293.283 96.3749 293.367 95.5987 293.592 94.8857C293.682 94.6005 293.563 94.3403 293.54 94.0644C293.444 92.8112 293.193 91.6021 293.181 90.3269C293.328 89.6659 293.632 89.1104 293.726 88.4123C293.752 88.0897 293.916 87.9319 294.046 87.7255C294.318 87.5403 294.494 87.1733 294.709 86.8791C295.194 86.4895 295.503 85.7485 295.955 85.2803C297.121 84.0566 298.342 83.0199 299.608 82.0799C301.147 80.9369 302.691 79.8538 304.349 79.2283C304.756 78.8967 305.216 78.7998 305.606 78.4139C305.624 78.4083 305.643 78.3968 305.661 78.3613C306.171 78.1997 306.696 78.1522 307.191 77.8645C307.433 77.6966 307.689 77.7026 307.945 77.6847C308.934 77.684 309.901 77.3056 310.891 77.263C311.594 77.2376 312.295 77.0327 312.995 76.8935C313.054 76.8949 313.108 76.8842 313.168 76.8556C315.109 77.1167 317.058 76.7674 318.997 76.8608C319.545 77.1131 320.116 77.1266 320.67 77.367C322.008 77.9372 323.361 78.3999 324.706 78.9104C325.539 79.4267 326.43 79.5434 327.313 79.7018C328.036 79.8266 328.772 79.9277 329.506 79.885C330.036 79.8556 330.576 79.6947 331.091 79.8145C332.707 80.1937 334.297 80.2071 335.861 79.2502C337.207 78.7431 338.391 77.7712 339.363 76.1779C339.575 76.0034 339.782 75.8227 339.915 75.4906C340.478 74.5641 341.019 73.6131 341.373 72.4422C342.037 70.5543 341.98 68.6615 341.561 66.7542Z" fill="#C90117"/>
<path d="M147.692 53.2637H160.424V58.1287H152.603V67.9306H159.335V72.8136H152.603V87.4805H147.692V53.2637Z" fill="white"/>
<path d="M177.47 80.8317C177.47 85.619 175.119 88.0186 170.411 88.0305C165.715 88.0305 163.37 85.6309 163.37 80.8317V59.9055C163.37 55.1182 165.715 52.7246 170.411 52.7246C175.119 52.7246 177.47 55.1182 177.47 59.9055V80.8317ZM172.56 59.9055C172.56 58.3736 171.852 57.5956 170.429 57.5837H170.394C168.983 57.5837 168.281 58.3556 168.281 59.9055V80.8317C168.281 82.3756 168.989 83.1535 170.411 83.1535C171.846 83.1535 172.56 82.3816 172.56 80.8317V59.9055Z" fill="white"/>
<path d="M195.386 80.8317C195.386 85.619 193.035 88.0186 188.327 88.0305C183.631 88.0305 181.286 85.6309 181.286 80.8317V59.9055C181.286 55.1182 183.631 52.7246 188.327 52.7246C193.035 52.7246 195.386 55.1182 195.386 59.9055V80.8317ZM190.476 59.9055C190.476 58.3736 189.768 57.5956 188.345 57.5837H188.31C186.899 57.5837 186.197 58.3556 186.197 59.9055V80.8317C186.197 82.3756 186.905 83.1535 188.327 83.1535C189.762 83.1535 190.476 82.3816 190.476 80.8317V59.9055Z" fill="white"/>
<path d="M208.392 42.1748H213.302V80.8318C213.302 85.619 210.951 88.0186 206.243 88.0306C201.547 88.0306 199.202 85.631 199.202 80.8318V59.9235C199.202 55.1363 201 52.7367 204.595 52.7247C206.154 52.7247 207.422 53.0897 208.392 53.8198V42.1748ZM208.392 59.9056C208.38 58.3736 207.672 57.6017 206.261 57.6017C204.827 57.6017 204.113 58.3736 204.113 59.9235V80.8318C204.113 82.3757 204.821 83.1536 206.243 83.1536C207.678 83.1536 208.392 82.3817 208.392 80.8318V59.9056Z" fill="white"/>
<path d="M226.271 53.2637H231.181V67.9246H235.466V53.2637H240.377V87.4745H235.466V72.8136H231.181V87.4805H226.271V53.2637Z" fill="white"/>
<path d="M258.638 80.8322C258.638 85.6195 256.287 88.0191 251.579 88.031C246.883 88.031 244.538 85.6314 244.538 80.8322V53.2637H249.449V80.8322C249.449 82.3761 250.157 83.154 251.579 83.154C253.014 83.154 253.728 82.3821 253.728 80.8322V53.2637H258.638V80.8322Z" fill="white"/>
<path d="M269.322 53.2633H273.119V58.1283H269.322V87.4741H264.411V58.1283H260.888V53.2633H264.411V42.1748H269.322V53.2633Z" fill="white"/>
<rect x="480.887" y="1.5" width="416.887" height="129.5" rx="16" stroke="#DCDCDC" stroke-width="1.5"/>
<path d="M673.029 43.534C668.589 35.854 659.289 29.204 654.239 32.114C649.189 35.034 650.299 46.404 654.739 54.094C657.589 59.034 661.129 61.244 664.629 61.414C666.599 61.514 668.419 62.484 669.409 64.194L689.859 99.604C690.559 100.824 692.029 101.464 693.359 101.004C695.149 100.384 695.849 98.344 694.949 96.794L674.449 61.284C673.459 59.574 673.529 57.504 674.429 55.754C676.029 52.644 675.879 48.484 673.029 43.534Z" fill="#06C167"/>
<path d="M654.928 45.7842C655.168 46.6242 655.558 47.4242 655.948 48.2042C656.328 48.9942 656.748 49.7642 657.188 50.5142C658.068 52.0142 659.038 53.4642 660.198 54.7442C660.768 55.3942 661.388 55.9842 662.068 56.4942C662.738 57.0142 663.478 57.4442 664.268 57.7542C665.848 58.3942 667.648 58.3142 669.318 57.7242C668.538 58.1442 667.678 58.4242 666.788 58.5442C665.888 58.6542 664.958 58.5542 664.088 58.2742C662.338 57.7142 660.858 56.5442 659.668 55.2142C658.468 53.8742 657.498 52.3642 656.698 50.7742C656.298 49.9842 655.938 49.1642 655.628 48.3342C655.478 47.9142 655.338 47.4942 655.208 47.0742C655.088 46.6542 654.958 46.2242 654.928 45.7842Z" fill="#06C167"/>
<path d="M706.679 36.8537L699.329 49.5837L698.029 48.8337L705.379 36.1037C705.679 35.5837 705.499 34.9137 704.979 34.6137C704.459 34.3137 703.789 34.4937 703.489 35.0137L696.139 47.7437L694.839 46.9937L702.189 34.2637C702.489 33.7437 702.309 33.0737 701.789 32.7737C701.269 32.4737 700.599 32.6537 700.299 33.1737L692.949 45.9037L691.649 45.1537L698.999 32.4237C699.299 31.9037 699.119 31.2337 698.599 30.9337L698.369 30.7937C697.849 30.4937 697.179 30.6737 696.879 31.1937L684.739 52.2837C683.769 53.9537 683.589 55.8637 684.079 57.5837C684.529 59.1937 684.349 60.9137 683.509 62.3637L663.289 97.3937C662.589 98.6137 662.769 100.204 663.829 101.124C665.259 102.364 667.379 101.954 668.269 100.394L688.539 65.2837C689.379 63.8337 690.779 62.8137 692.399 62.4037C694.129 61.9637 695.699 60.8537 696.659 59.1837L708.829 38.1037C709.129 37.5837 708.949 36.9137 708.429 36.6137L708.159 36.4637C707.649 36.1537 706.979 36.3337 706.679 36.8537Z" fill="#06C167"/>
<path d="M687.07 58.0239C686.56 57.1139 686.23 56.1039 686.12 55.0339C686.06 54.4939 686.1 53.9439 686.24 53.3939C686.27 53.2539 686.32 53.1239 686.38 52.9939C686.44 52.8639 686.49 52.7239 686.58 52.6039C686.66 52.4839 686.75 52.3539 686.83 52.2539L687.06 51.9539C687.68 51.1539 688.27 50.3139 688.88 49.4839C689.48 48.6539 690.09 47.8139 690.74 47.0039C690.34 47.9639 689.87 48.8939 689.35 49.7839C688.83 50.6839 688.27 51.5539 687.63 52.3839L687.38 52.6939C687.3 52.7939 687.25 52.8739 687.18 52.9739C687.06 53.1639 686.96 53.3639 686.89 53.5839C686.74 54.0239 686.68 54.5139 686.67 55.0039C686.67 56.0039 686.84 57.0139 687.07 58.0239Z" fill="#06C167"/>
<path d="M605.239 74.8136V60.6836H608.309C609.359 60.6836 610.189 60.8436 610.799 61.1636C611.409 61.4836 611.849 61.9636 612.109 62.6036C612.369 63.2436 612.499 64.0436 612.499 64.9936V70.1936C612.499 71.1936 612.369 72.0336 612.109 72.7236C611.849 73.4136 611.419 73.9336 610.839 74.2836C610.249 74.6436 609.459 74.8136 608.479 74.8136H605.239ZM607.209 73.4036H608.329C609.049 73.4036 609.559 73.2636 609.869 72.9836C610.169 72.7036 610.359 72.2936 610.419 71.7636C610.479 71.2336 610.519 70.5836 610.519 69.8236V65.2336C610.519 64.5036 610.469 63.9036 610.379 63.4536C610.289 63.0036 610.079 62.6636 609.769 62.4536C609.459 62.2436 608.959 62.1436 608.289 62.1436H607.209V73.4036Z" fill="#FF441F"/>
<path d="M615.409 74.8136L618.409 60.6836H620.309L623.329 74.8136H621.459L620.809 71.2536H617.929L617.249 74.8136H615.409ZM618.199 69.8436H620.549L619.359 63.4736L618.199 69.8436Z" fill="#FF441F"/>
<path d="M626.608 74.8136V60.6836H628.548V74.8136H626.608Z" fill="#FF441F"/>
<path d="M632.579 74.8136V60.6836H634.549V73.4036H638.159V74.8136H632.579Z" fill="#FF441F"/>
<path d="M642.92 74.8136V69.8236L639.87 60.6836H641.7L643.86 67.5036L645.99 60.6836H647.84L644.8 69.8236V74.8136H642.92Z" fill="#FF441F"/>
<path d="M700.96 76.3937V62.2637H704.03C705.08 62.2637 705.91 62.4237 706.52 62.7437C707.13 63.0637 707.57 63.5437 707.83 64.1837C708.09 64.8237 708.22 65.6237 708.22 66.5737V71.7737C708.22 72.7737 708.09 73.6137 707.83 74.3037C707.57 74.9937 707.14 75.5137 706.56 75.8637C705.97 76.2237 705.18 76.3937 704.2 76.3937H700.96ZM702.93 74.9837H704.05C704.77 74.9837 705.28 74.8437 705.59 74.5637C705.89 74.2837 706.08 73.8737 706.14 73.3437C706.2 72.8137 706.24 72.1637 706.24 71.4037V66.8137C706.24 66.0837 706.19 65.4837 706.1 65.0337C706.01 64.5837 705.8 64.2437 705.49 64.0337C705.18 63.8237 704.68 63.7237 704.01 63.7237H702.95V74.9837H702.93Z" fill="#FF441F"/>
<path d="M711.889 76.3937V62.2637H717.369V63.7337H713.859V68.4037H716.699V69.8037H713.859V74.9837H717.399V76.3937H711.889Z" fill="#FF441F"/>
<path d="M720.739 76.3937V62.2637H722.709V74.9837H726.319V76.3937H720.739Z" fill="#FF441F"/>
<path d="M729.51 76.3937V62.2637H731.451V76.3937H729.51Z" fill="#FF441F"/>
<path d="M737.94 76.3937L734.78 62.2637H736.63L738.86 72.6837L740.99 62.2637H742.79L739.67 76.3937H737.94Z" fill="#FF441F"/>
<path d="M746.03 76.3937V62.2637H751.51V63.7337H748V68.4037H750.84V69.8037H748V74.9837H751.54V76.3937H746.03Z" fill="#FF441F"/>
<path d="M754.88 76.3937V62.2637H757.72C758.66 62.2637 759.44 62.3837 760.06 62.6437C760.68 62.8937 761.13 63.2937 761.43 63.8437C761.73 64.3937 761.88 65.1237 761.88 66.0137C761.88 66.5637 761.82 67.0537 761.71 67.5037C761.59 67.9537 761.41 68.3337 761.15 68.6337C760.89 68.9437 760.56 69.1637 760.14 69.3037L762.15 76.3837H760.25L758.4 69.7537H756.86V76.3837H754.88V76.3937ZM756.85 68.3537H757.6C758.16 68.3537 758.61 68.2837 758.96 68.1437C759.31 68.0037 759.56 67.7637 759.73 67.4337C759.89 67.0937 759.97 66.6237 759.97 66.0237C759.97 65.1937 759.82 64.6037 759.52 64.2337C759.22 63.8637 758.62 63.6837 757.72 63.6837H756.85V68.3537Z" fill="#FF441F"/>
<path d="M767.84 76.3937V71.4037L764.79 62.2637H766.62L768.78 69.0837L770.91 62.2637H772.76L769.72 71.4037V76.3937H767.84Z" fill="#FF441F"/>
<path d="M724.809 97.1437C724.419 96.8437 724.229 96.4437 724.229 95.9537C724.229 95.8537 724.229 95.7837 724.239 95.7437H725.099C725.079 96.0537 725.179 96.3237 725.389 96.5437C725.599 96.7637 725.919 96.8837 726.359 96.8837C726.789 96.8837 727.139 96.7837 727.389 96.5837C727.649 96.3837 727.769 96.1037 727.769 95.7537C727.769 95.5337 727.709 95.3537 727.579 95.2037C727.459 95.0537 727.299 94.9337 727.119 94.8337C726.939 94.7337 726.689 94.6237 726.379 94.5037C725.999 94.3537 725.689 94.2037 725.459 94.0737C725.229 93.9437 725.029 93.7537 724.869 93.5237C724.709 93.2937 724.639 93.0037 724.649 92.6537C724.649 92.2837 724.749 91.9537 724.949 91.6637C725.149 91.3737 725.419 91.1537 725.769 90.9937C726.119 90.8337 726.519 90.7637 726.959 90.7637C727.389 90.7637 727.769 90.8337 728.089 90.9837C728.409 91.1337 728.639 91.3337 728.799 91.5937C728.959 91.8537 729.029 92.1537 729.009 92.4737H728.099C728.109 92.3037 728.079 92.1437 727.989 91.9937C727.899 91.8437 727.769 91.7137 727.589 91.6237C727.409 91.5237 727.179 91.4837 726.909 91.4837C726.489 91.4837 726.159 91.5837 725.909 91.7737C725.659 91.9637 725.529 92.2337 725.529 92.5737C725.529 92.7737 725.589 92.9437 725.709 93.0837C725.829 93.2237 725.979 93.3537 726.159 93.4437C726.339 93.5437 726.579 93.6637 726.899 93.7937C727.279 93.9537 727.589 94.1037 727.819 94.2437C728.059 94.3837 728.259 94.5637 728.429 94.7937C728.599 95.0237 728.679 95.3137 728.679 95.6537C728.679 96.0237 728.579 96.3537 728.389 96.6437C728.199 96.9337 727.919 97.1637 727.569 97.3337C727.209 97.5037 726.799 97.5837 726.319 97.5837C725.699 97.5937 725.189 97.4437 724.809 97.1437Z" fill="#FF441F"/>
<path d="M733.46 91.5337L733.06 93.8237H735.48L735.36 94.4938H732.94L732.52 96.8438H735.24L735.12 97.5338H731.53L732.72 90.8438H736.3L736.18 91.5337H733.46Z" fill="#FF441F"/>
<path d="M743.19 91.2835C743.53 91.5735 743.7 91.9535 743.7 92.4335C743.7 92.5135 743.69 92.6435 743.66 92.8135C743.58 93.2735 743.37 93.6835 743.05 94.0335C742.72 94.3835 742.29 94.6135 741.74 94.7335L742.92 97.5335H741.88L740.77 94.8035H739.73L739.24 97.5335H738.37L739.56 90.8535H741.71C742.35 90.8535 742.85 90.9935 743.19 91.2835ZM742.79 92.4935C742.79 92.1835 742.69 91.9535 742.49 91.7835C742.29 91.6135 741.98 91.5335 741.57 91.5335H740.3L739.85 94.0935H741.13C741.6 94.0935 741.98 93.9735 742.25 93.7435C742.52 93.5135 742.7 93.2035 742.77 92.8135C742.78 92.6935 742.79 92.5935 742.79 92.4935Z" fill="#FF441F"/>
<path d="M747.689 90.8535L748.749 96.5935L751.859 90.8535H752.799L749.089 97.5335H748.079L746.739 90.8535H747.689Z" fill="#FF441F"/>
<path d="M756.549 90.8535L755.359 97.5335H754.489L755.679 90.8535H756.549Z" fill="#FF441F"/>
<path d="M759.779 92.4237C760.169 91.9037 760.639 91.4937 761.199 91.2037C761.759 90.9137 762.339 90.7637 762.959 90.7637C763.689 90.7637 764.289 90.9437 764.779 91.2937C765.259 91.6437 765.569 92.1437 765.709 92.7837H764.669C764.559 92.3937 764.339 92.0937 764.029 91.8737C763.719 91.6637 763.319 91.5537 762.829 91.5537C762.359 91.5537 761.929 91.6637 761.519 91.8737C761.109 92.0837 760.769 92.3937 760.489 92.7937C760.209 93.1937 760.019 93.6537 759.929 94.1737C759.899 94.3437 759.879 94.5337 759.879 94.7437C759.879 95.3737 760.059 95.8637 760.429 96.2337C760.799 96.6037 761.289 96.7837 761.899 96.7837C762.389 96.7837 762.819 96.6837 763.209 96.4637C763.599 96.2437 763.919 95.9537 764.169 95.5637H765.209C764.849 96.2037 764.359 96.6937 763.759 97.0437C763.159 97.3937 762.489 97.5637 761.759 97.5637C761.219 97.5637 760.729 97.4537 760.309 97.2237C759.889 96.9937 759.559 96.6737 759.319 96.2637C759.079 95.8537 758.969 95.3737 758.969 94.8437C758.969 94.6237 758.989 94.3937 759.029 94.1637C759.139 93.5337 759.389 92.9437 759.779 92.4237Z" fill="#FF441F"/>
<path d="M770.009 91.5337L769.609 93.8237H772.029L771.909 94.4938H769.489L769.069 96.8438H771.789L771.669 97.5338H768.079L769.269 90.8438H772.849L772.729 91.5337H770.009Z" fill="#FF441F"/>
<path d="M657.14 80.9834H604.2V82.7334H657.14V80.9834Z" fill="#FF441F"/>
<path d="M774.46 80.9834H696.88V82.7334H774.46V80.9834Z" fill="#FF441F"/>
<path d="M681.451 87.104C681.221 87.104 680.991 86.984 680.861 86.764L669.981 68.164C669.791 67.844 669.901 67.424 670.221 67.234C670.541 67.044 670.961 67.154 671.151 67.474L682.041 86.074C682.231 86.394 682.121 86.814 681.801 87.004C681.691 87.074 681.571 87.104 681.451 87.104Z" fill="white"/>
<path d="M686.599 81.4741C686.369 81.4741 686.139 81.3541 686.009 81.1341L675.119 62.5341C674.929 62.2141 675.039 61.7941 675.359 61.6041C675.679 61.4141 676.099 61.5241 676.289 61.8441L687.179 80.4441C687.369 80.7641 687.259 81.1841 686.939 81.3741C686.839 81.4441 686.719 81.4741 686.599 81.4741Z" fill="white"/>
<rect x="960.775" y="1.5" width="416.887" height="129.5" rx="16" stroke="#DCDCDC" stroke-width="1.5"/>
<path d="M1086.6 51.17C1090.84 46.6068 1098.25 43.5183 1101.25 46.3092C1104.25 49.1 1101.7 56.712 1097.45 61.273C1094.72 64.2071 1091.96 65.1616 1089.53 64.7274C1088.17 64.4827 1086.77 64.8662 1085.83 65.8803L1066.26 86.8997C1065.59 87.6228 1064.48 87.83 1063.65 87.3053C1062.52 86.5999 1062.36 85.0943 1063.22 84.1728L1082.84 63.0961C1083.78 62.082 1084.06 60.6579 1083.72 59.3132C1083.11 56.9302 1083.87 54.1041 1086.6 51.17Z" fill="#142328"/>
<path d="M1098.63 55.5527C1098.33 56.0906 1097.94 56.5734 1097.55 57.0474C1097.16 57.5257 1096.76 57.9864 1096.34 58.434C1095.5 59.3245 1094.61 60.1622 1093.62 60.8544C1093.12 61.2072 1092.6 61.5158 1092.06 61.7583C1091.52 62.0096 1090.94 62.1837 1090.36 62.2719C1089.17 62.4615 1087.95 62.122 1086.91 61.4607C1087.37 61.8707 1087.92 62.1992 1088.51 62.424C1089.11 62.6445 1089.76 62.7172 1090.4 62.6643C1091.68 62.5585 1092.88 61.9897 1093.9 61.2667C1094.93 60.5348 1095.84 59.6552 1096.63 58.6941C1097.03 58.2157 1097.4 57.7131 1097.75 57.1951C1097.92 56.9349 1098.08 56.6682 1098.23 56.397C1098.38 56.1259 1098.54 55.8547 1098.63 55.5527Z" fill="white"/>
<path d="M1057.34 50.7063L1064.6 58.0361L1065.35 57.2977L1058.08 49.9679C1057.79 49.668 1057.79 49.1831 1058.09 48.8877C1058.39 48.5901 1058.87 48.5923 1059.17 48.8921L1066.43 56.2219L1067.18 55.4812L1059.92 48.1514C1059.62 47.8516 1059.62 47.3666 1059.92 47.0712C1060.22 46.7736 1060.71 46.7758 1061 47.0756L1068.26 54.4054L1069.01 53.6669L1061.75 46.3371C1061.45 46.0373 1061.45 45.5523 1061.75 45.2569L1061.89 45.1203C1062.19 44.8227 1062.67 44.8249 1062.97 45.1247L1075 57.2668C1075.95 58.2301 1076.42 59.4933 1076.39 60.7498C1076.37 61.9248 1076.81 63.0623 1077.63 63.8978L1097.62 84.0685C1098.31 84.7695 1098.48 85.8828 1097.92 86.6984C1097.17 87.794 1095.66 87.8932 1094.77 86.9982L1074.73 66.7724C1073.91 65.9369 1072.77 65.4938 1071.6 65.5048C1070.34 65.5158 1069.08 65.0397 1068.13 64.0763L1056.1 51.9342C1055.8 51.6344 1055.8 51.1494 1056.1 50.854L1056.25 50.7019C1056.56 50.4043 1057.04 50.4065 1057.34 50.7063Z" fill="#142328"/>
<path d="M1074.43 61.5838C1074.62 60.8739 1074.66 60.1266 1074.54 59.3815C1074.49 59.0068 1074.36 58.6364 1074.17 58.2903C1074.12 58.2021 1074.07 58.1184 1074 58.0412C1073.93 57.9641 1073.88 57.8781 1073.79 57.8142C1073.72 57.748 1073.63 57.6731 1073.56 57.618L1073.35 57.4592C1072.78 57.0316 1072.23 56.5642 1071.67 56.1101C1071.12 55.6516 1070.56 55.1931 1069.97 54.7588C1070.41 55.343 1070.9 55.8831 1071.41 56.4011C1071.92 56.9192 1072.46 57.4085 1073.05 57.8605L1073.27 58.0236C1073.34 58.0765 1073.39 58.125 1073.46 58.1757C1073.57 58.2815 1073.68 58.4027 1073.76 58.5416C1073.94 58.8128 1074.06 59.1324 1074.16 59.4675C1074.34 60.1376 1074.41 60.8541 1074.43 61.5838Z" fill="white"/>
<path d="M1146.6 46.4453H1134.27C1132.73 46.4453 1131.48 47.6952 1131.48 49.2361C1131.48 50.7771 1132.73 52.027 1134.27 52.027H1146.6C1148.14 52.027 1149.39 50.7771 1149.39 49.2361C1149.39 47.6952 1148.14 46.4453 1146.6 46.4453Z" fill="#FC7E10"/>
<path d="M1139.27 58.0742C1137.73 58.0742 1136.48 59.3241 1136.48 60.8651C1136.48 62.406 1137.73 63.6559 1139.27 63.6559C1140.81 63.6559 1142.06 62.406 1142.06 60.8651C1142.06 59.3241 1140.81 58.0742 1139.27 58.0742Z" fill="#FC7E10"/>
<path d="M1113.8 81.4058H1110.11C1108.57 81.4058 1107.32 80.1558 1107.32 78.6149V78.2887C1107.32 76.7477 1108.57 75.4978 1110.11 75.4978H1122.17C1122.27 75.4978 1122.38 75.5044 1122.47 75.5155C1123.87 75.3634 1124.96 74.1796 1124.96 72.7423V72.416C1124.96 70.8751 1123.71 69.6252 1122.17 69.6252H1116.74V69.5789C1115.36 69.4069 1114.29 68.2342 1114.29 66.8123V66.486C1114.29 65.0642 1115.36 63.8914 1116.74 63.7194V63.6731H1128.78C1130.32 63.6731 1131.57 62.4232 1131.57 60.8823V60.5561C1131.57 59.0151 1130.32 57.7652 1128.78 57.7652H1116.74V57.7432H1110.17C1108.63 57.7432 1107.38 56.4932 1107.38 54.9523V54.6261C1107.38 53.0852 1108.63 51.8352 1110.17 51.8352H1116.74V51.8132H1123.54C1125.08 51.8132 1126.33 50.5633 1126.33 49.0224V48.6961C1126.33 47.1552 1125.08 45.9053 1123.54 45.9053H1116.74H1109.29H1100.71C1100.9 46.0243 1101.08 46.1566 1101.24 46.3087C1104.24 49.0995 1101.69 56.7115 1097.45 61.2725C1094.72 64.2066 1091.95 65.1612 1089.53 64.7269C1088.16 64.4822 1086.76 64.8658 1085.82 65.8798L1082.81 69.1181L1097.62 84.0665C1098.31 84.7675 1098.48 85.8808 1097.92 86.6964C1097.75 86.9455 1097.53 87.1417 1097.3 87.2872H1113.8C1115.43 87.2872 1116.74 85.9712 1116.74 84.3465C1116.74 82.7218 1115.42 81.4058 1113.8 81.4058Z" fill="#FC7E10"/>
<path d="M1136.94 69.7021H1130.78C1129.24 69.7021 1127.99 70.9521 1127.99 72.493C1127.99 74.0339 1129.24 75.2838 1130.78 75.2838H1136.94C1138.48 75.2838 1139.73 74.0339 1139.73 72.493C1139.73 70.9499 1138.48 69.7021 1136.94 69.7021Z" fill="#FC7E10"/>
<path d="M1128.57 81.3291H1122.41C1120.87 81.3291 1119.62 82.579 1119.62 84.1199C1119.62 85.6608 1120.87 86.9108 1122.41 86.9108H1128.57C1130.11 86.9108 1131.36 85.6608 1131.36 84.1199C1131.36 82.579 1130.11 81.3291 1128.57 81.3291Z" fill="#FC7E10"/>
<path d="M1159.99 56.4727H1171.02L1170.13 60.6633H1163.35L1161.55 69.1042H1167.38L1166.49 73.3103H1160.67L1157.98 85.9418H1153.73L1159.99 56.4727Z" fill="#142328"/>
<path d="M1180.31 62.196C1180.36 61.9469 1180.39 61.7198 1180.39 61.5192C1180.39 60.6374 1179.89 60.1965 1178.9 60.1965H1178.87C1177.64 60.2075 1176.88 60.8733 1176.6 62.1938L1175.76 66.1596H1171.51L1172.35 62.1938C1173.23 58.0692 1175.71 56.0059 1179.78 56.0059C1183.13 56.0059 1184.8 57.3969 1184.8 60.1811C1184.8 60.7917 1184.72 61.4619 1184.56 62.1938L1180.73 80.2151C1179.85 84.3507 1177.37 86.4185 1173.31 86.4185C1169.95 86.4096 1168.28 85.0076 1168.28 82.2124C1168.28 81.6105 1168.36 80.9448 1168.52 80.2151L1169.57 75.275C1170.44 71.1504 1172.44 69.0827 1175.56 69.0716C1176.91 69.0716 1177.94 69.3869 1178.64 70.0173L1180.31 62.196ZM1172.77 80.2173C1172.72 80.4576 1172.7 80.6825 1172.7 80.8941C1172.7 81.7759 1173.2 82.2168 1174.21 82.2168C1175.45 82.2168 1176.2 81.551 1176.48 80.2195L1177.53 75.2639C1177.58 75.0237 1177.61 74.8032 1177.61 74.6026C1177.61 73.7208 1177.11 73.2799 1176.11 73.2799C1174.87 73.2799 1174.1 73.9457 1173.82 75.2772L1172.77 80.2173Z" fill="#142328"/>
<path d="M1187.87 62.1957C1188.75 58.0712 1191.22 56.0078 1195.29 56.0078C1198.64 56.0078 1200.32 57.4054 1200.32 60.1985C1200.32 60.8003 1200.24 61.466 1200.08 62.1957L1199.24 66.1615H1194.99L1195.83 62.1957C1195.88 61.9554 1195.9 61.735 1195.9 61.5344C1195.9 60.6526 1195.4 60.2073 1194.4 60.1985H1194.37C1193.15 60.1985 1192.4 60.8642 1192.12 62.1957L1191.55 64.8697C1191.52 65.0108 1191.5 65.1607 1191.5 65.3194C1191.5 66.5407 1192.5 67.9978 1194.51 69.6908C1196.31 71.2031 1197.21 72.96 1197.21 74.9617C1197.21 75.4533 1197.15 75.9625 1197.04 76.4938L1196.25 80.2193C1195.37 84.3548 1192.89 86.4226 1188.83 86.4226C1185.47 86.4138 1183.8 85.0118 1183.8 82.2165C1183.8 81.6147 1183.88 80.949 1184.04 80.2193L1184.88 76.2535H1189.13L1188.29 80.2193C1188.24 80.4596 1188.21 80.6844 1188.21 80.8961C1188.21 81.7778 1188.72 82.2187 1189.73 82.2187C1190.96 82.2187 1191.72 81.553 1192 80.2215L1192.72 76.8575C1192.76 76.6878 1192.78 76.518 1192.78 76.3461C1192.78 75.0454 1191.78 73.553 1189.79 71.871C1188 70.3698 1187.1 68.6062 1187.1 66.5848C1187.1 66.0645 1187.16 65.5244 1187.28 64.9623L1187.87 62.1957Z" fill="#142328"/>
<path d="M1210.54 56.4728H1213.83L1212.95 60.6634H1209.66L1204.28 85.9397H1200.03L1205.41 60.6634H1202.36L1203.24 56.4728H1206.29L1208.32 46.9209H1212.57L1210.54 56.4728Z" fill="#142328"/>
<path d="M1223.71 56.4727H1234.74L1233.85 60.6633H1227.08L1225.27 69.1042H1231.1L1230.21 73.3103H1224.39L1221.7 85.9418H1217.45L1223.71 56.4727Z" fill="#FC7E10"/>
<path d="M1244.45 80.2171C1243.57 84.3416 1241.09 86.4094 1237.02 86.4204C1233.68 86.4204 1232.01 85.0228 1232.01 82.2298C1232.01 81.6301 1232.08 80.9578 1232.25 80.2171L1236.07 62.1957C1236.96 58.0712 1239.43 56.0078 1243.49 56.0078C1246.85 56.0078 1248.53 57.4054 1248.53 60.1985C1248.53 60.8003 1248.45 61.466 1248.29 62.1957L1244.45 80.2171ZM1244.03 62.1957C1244.09 61.9554 1244.11 61.735 1244.11 61.5344C1244.11 60.6526 1243.61 60.2073 1242.61 60.1985H1242.58C1241.36 60.1985 1240.6 60.8642 1240.32 62.1957L1236.5 80.2171C1236.44 80.4684 1236.42 80.6932 1236.42 80.8939C1236.42 81.7756 1236.92 82.2165 1237.92 82.2165C1239.16 82.2165 1239.92 81.5508 1240.21 80.2193L1244.03 62.1957Z" fill="#FC7E10"/>
<path d="M1259.97 80.2171C1259.09 84.3416 1256.61 86.4094 1252.54 86.4204C1249.19 86.4204 1247.52 85.0228 1247.52 82.2298C1247.52 81.6301 1247.6 80.9578 1247.76 80.2171L1251.59 62.1957C1252.47 58.0712 1254.95 56.0078 1259.01 56.0078C1262.36 56.0078 1264.04 57.4054 1264.04 60.1985C1264.04 60.8003 1263.96 61.466 1263.8 62.1957L1259.97 80.2171ZM1259.55 62.1957C1259.6 61.9554 1259.62 61.735 1259.62 61.5344C1259.62 60.6526 1259.12 60.2073 1258.12 60.1985H1258.09C1256.87 60.1985 1256.12 60.8642 1255.84 62.1957L1252.01 80.2171C1251.96 80.4684 1251.93 80.6932 1251.93 80.8939C1251.93 81.7756 1252.43 82.2165 1253.44 82.2165C1254.68 82.2165 1255.44 81.5508 1255.72 80.2193L1259.55 62.1957Z" fill="#FC7E10"/>
<path d="M1278.31 46.9209H1282.56L1275.48 80.2169C1274.6 84.3414 1272.13 86.4092 1268.05 86.4202C1264.71 86.4202 1263.04 85.0226 1263.04 82.2296C1263.04 81.63 1263.12 80.9576 1263.28 80.2169L1267.11 62.2088C1267.98 58.0842 1269.97 56.0165 1273.1 56.0054C1274.45 56.0054 1275.48 56.3207 1276.18 56.9511L1278.31 46.9209ZM1275.06 62.1955C1275.11 61.9553 1275.14 61.7348 1275.14 61.5342C1275.14 60.6524 1274.64 60.2115 1273.64 60.2115C1272.4 60.2115 1271.64 60.8773 1271.35 62.2088L1267.52 80.2169C1267.47 80.4682 1267.45 80.6931 1267.45 80.8937C1267.45 81.7755 1267.95 82.2164 1268.95 82.2164C1270.19 82.2164 1270.95 81.5506 1271.23 80.2191L1275.06 62.1955Z" fill="#FC7E10"/>
</svg>
