<svg width="117" height="19" viewBox="0 0 117 19" fill="none" xmlns="http://www.w3.org/2000/svg">
<path d="M12.5005 2.75851C13.4715 2.7613 14.4019 3.13399 15.0885 3.79519C15.7752 4.45638 16.1622 5.35236 16.1651 6.28742V13.3445C16.1622 14.2796 15.7752 15.1755 15.0885 15.8367C14.4019 16.4979 13.4715 16.8706 12.5005 16.8734H5.17195C4.20092 16.8706 3.27049 16.4979 2.58386 15.8367C1.89723 15.1755 1.51021 14.2796 1.50731 13.3445V6.28742C1.51021 5.35236 1.89723 4.45638 2.58386 3.79519C3.27049 3.13399 4.20092 2.7613 5.17195 2.75851H12.5005ZM12.5005 1.34717H5.17195C2.35025 1.34717 0.041687 3.57023 0.041687 6.28742V13.3445C0.041687 16.0617 2.35025 18.2848 5.17195 18.2848H12.5005C15.3222 18.2848 17.6307 16.0617 17.6307 13.3445V6.28742C17.6307 3.57023 15.3222 1.34717 12.5005 1.34717Z" fill="#E1B168"/>
<path d="M13.6009 6.28761C13.3835 6.28761 13.171 6.22552 12.9902 6.1092C12.8094 5.99288 12.6685 5.82755 12.5853 5.63412C12.5021 5.44068 12.4803 5.22784 12.5228 5.02249C12.5652 4.81714 12.6699 4.62851 12.8236 4.48047C12.9774 4.33242 13.1732 4.2316 13.3865 4.19075C13.5997 4.14991 13.8208 4.17087 14.0216 4.25099C14.2225 4.33111 14.3942 4.4668 14.515 4.64088C14.6358 4.81497 14.7003 5.01964 14.7003 5.22901C14.7006 5.36811 14.6723 5.5059 14.6172 5.63447C14.5621 5.76304 14.4811 5.87986 14.379 5.97822C14.2768 6.07658 14.1555 6.15454 14.022 6.20764C13.8885 6.26073 13.7454 6.28791 13.6009 6.28761ZM8.83738 6.99309C9.41721 6.99309 9.98401 7.15866 10.4661 7.46886C10.9482 7.77906 11.324 8.21996 11.5459 8.73581C11.7677 9.25166 11.8258 9.81928 11.7127 10.3669C11.5996 10.9145 11.3204 11.4175 10.9104 11.8123C10.5004 12.2072 9.978 12.476 9.40932 12.585C8.84063 12.6939 8.25118 12.638 7.71549 12.4243C7.17981 12.2106 6.72195 11.8488 6.39982 11.3846C6.07769 10.9203 5.90575 10.3745 5.90575 9.81615C5.90658 9.06767 6.21571 8.35008 6.76532 7.82083C7.31493 7.29158 8.06012 6.99389 8.83738 6.99309ZM8.83738 5.58175C7.96769 5.58175 7.11752 5.83009 6.3944 6.29537C5.67127 6.76066 5.10767 7.42198 4.77485 8.19571C4.44203 8.96945 4.35495 9.82084 4.52462 10.6422C4.69429 11.4636 5.11309 12.2181 5.72805 12.8103C6.34302 13.4025 7.12654 13.8058 7.97952 13.9692C8.8325 14.1326 9.71665 14.0487 10.5201 13.7282C11.3236 13.4077 12.0104 12.865 12.4936 12.1687C12.9767 11.4723 13.2346 10.6536 13.2346 9.81615C13.2346 8.69311 12.7714 7.61608 11.9467 6.82198C11.1221 6.02787 10.0036 5.58175 8.83738 5.58175Z" fill="#E1B168"/>
<path fill-rule="evenodd" clip-rule="evenodd" d="M50.2198 9.86674C50.2198 5.19 46.2819 1.39795 41.4253 1.39795C36.5686 1.39795 32.6307 5.19 32.6307 9.86674C32.6307 14.0936 35.8462 17.5972 40.0511 18.2331V12.3155H37.8175V9.86674H40.0511V8.00096C40.0511 5.87885 41.3644 4.70569 43.373 4.70569C44.3353 4.70569 45.342 4.87129 45.342 4.87129V6.95559H44.2324C43.1406 6.95559 42.799 7.60814 42.799 8.27884V9.86674H45.2379L44.8484 12.3155H42.7994V18.2338C47.0043 17.5983 50.2198 14.0947 50.2198 9.86674Z" fill="#E1B168"/>
<path d="M84.0651 4.06422C83.3582 4.37138 82.6102 4.57375 81.8449 4.66492C82.6492 4.19393 83.2541 3.44569 83.5461 2.56052C82.7856 3.00519 81.955 3.31719 81.0899 3.48316C80.7256 3.10135 80.2875 2.79762 79.8021 2.59041C79.3168 2.38321 78.7943 2.27686 78.2666 2.27784C76.13 2.27784 74.401 3.98178 74.401 6.08225C74.3994 6.37442 74.4329 6.66572 74.5007 6.94992C72.9686 6.8781 71.4684 6.48726 70.096 5.80242C68.7236 5.11757 67.5092 4.1538 66.5307 2.97276C66.1873 3.55152 66.0058 4.21186 66.005 4.88478C66.005 6.20396 66.6932 7.37002 67.7324 8.05316C67.1167 8.03855 66.5136 7.87559 65.9743 7.5781V7.62522C65.9743 9.47049 67.3092 11.0056 69.076 11.355C68.7437 11.4436 68.4014 11.4885 68.0575 11.4885C67.8136 11.4889 67.5701 11.4653 67.3308 11.4178C67.822 12.9294 69.2515 14.0287 70.9448 14.0601C69.5688 15.1205 67.8795 15.6937 66.1424 15.6895C65.834 15.689 65.526 15.6707 65.2197 15.6345C66.9869 16.763 69.0412 17.3599 71.138 17.3541C78.2584 17.3541 82.1484 11.5553 82.1484 6.5259C82.1484 6.361 82.1441 6.19611 82.1362 6.03514C82.8912 5.49807 83.5444 4.83065 84.0651 4.06422Z" fill="#E1B168"/>
<path d="M108.001 0.881836C103.066 0.881836 99.0651 4.88135 99.0651 9.81395C99.0651 13.4705 101.267 16.6127 104.415 17.9964C104.391 17.3744 104.411 16.6247 104.57 15.9468C104.742 15.2211 105.719 11.078 105.719 11.078C105.719 11.078 105.432 10.5078 105.432 9.66641C105.432 8.34255 106.198 7.35363 107.155 7.35363C107.969 7.35363 108.36 7.96373 108.36 8.69345C108.36 9.5109 107.838 10.7311 107.57 11.8636C107.347 12.8126 108.045 13.5822 108.983 13.5822C110.674 13.5822 111.815 11.409 111.815 8.83301C111.815 6.87513 110.495 5.4117 108.097 5.4117C105.388 5.4117 103.697 7.43338 103.697 9.69034C103.697 10.4679 103.928 11.0182 104.287 11.4409C104.451 11.6363 104.475 11.716 104.415 11.9393C104.371 12.1028 104.275 12.4976 104.231 12.6571C104.171 12.8844 103.988 12.9641 103.785 12.8804C102.536 12.37 101.953 11.0062 101.953 9.46704C101.953 6.93095 104.096 3.88845 108.34 3.88845C111.751 3.88845 113.997 6.35674 113.997 9.00448C113.997 12.5095 112.046 15.1254 109.174 15.1254C108.209 15.1254 107.303 14.603 106.992 14.0128C106.992 14.0128 106.473 16.0704 106.362 16.4692C106.174 17.159 105.803 17.8449 105.464 18.3832C106.287 18.6258 107.14 18.7493 107.997 18.7501C112.932 18.7501 116.933 14.7505 116.933 9.81794C116.933 4.88534 112.936 0.881836 108.001 0.881836Z" fill="#E1B168"/>
</svg>
